<?xml version="1.0" encoding="utf-8"?>
<!-- Generator: Adobe Illustrator 18.0.0, SVG Export Plug-In . SVG Version: 6.00 Build 0)  -->
<!DOCTYPE svg PUBLIC "-//W3C//DTD SVG 1.1//EN" "http://www.w3.org/Graphics/SVG/1.1/DTD/svg11.dtd">
<svg version="1.1" id="Layer_1" xmlns="http://www.w3.org/2000/svg" xmlns:xlink="http://www.w3.org/1999/xlink" x="0px" y="0px"
	 viewBox="0 0 54 54" enable-background="new 0 0 54 54" xml:space="preserve">
<g>
	<g>
		<g>
			<g>
				<g>
					<path fill="#498CE8" d="M3,52.6c-1,0-1.8-0.8-1.8-1.8c0-5.3,4.5-7.8,8.5-10c4.1-2.3,6.6-3.9,6.6-6.8s-2.5-4.5-6.6-6.8
						c-4-2.2-8.5-4.7-8.5-10c0-1,0.8-1.8,1.8-1.8s1.8,0.8,1.8,1.8c0,2.9,2.5,4.5,6.6,6.8c4,2.2,8.5,4.7,8.5,10s-4.5,7.8-8.5,10
						c-4.1,2.3-6.6,3.9-6.6,6.8C4.8,51.8,4,52.6,3,52.6z"/>
				</g>
			</g>
		</g>
	</g>
	<g>
		<g>
			<g>
				<g>
					<path fill="#498CE8" d="M17.8,52.6c-1,0-1.8-0.8-1.8-1.8c0-5.3,4.5-7.8,8.5-10c4.1-2.3,6.6-3.9,6.6-6.8s-2.5-4.5-6.6-6.8
						c-4-2.2-8.5-4.7-8.5-10c0-1,0.8-1.8,1.8-1.8s1.8,0.8,1.8,1.8c0,2.9,2.5,4.5,6.6,6.8c4,2.2,8.5,4.7,8.5,10s-4.5,7.8-8.5,10
						c-4.1,2.3-6.6,3.9-6.6,6.8C19.6,51.8,18.8,52.6,17.8,52.6z"/>
				</g>
			</g>
		</g>
	</g>
	<g>
		<g>
			<g>
				<path fill="#ED3C5C" d="M52.8,23.8H26.9L39.8,1.4L52.8,23.8z M32.3,20.7h15l-7.5-13L32.3,20.7z"/>
			</g>
		</g>
	</g>
	<g>
		<g>
			<g>
				<path fill="#ED3C5C" d="M39.8,16.9c-0.9,0-1.6-0.7-1.6-1.6v-3.1c0-0.9,0.7-1.6,1.6-1.6s1.6,0.7,1.6,1.6v3.1
					C41.4,16.2,40.7,16.9,39.8,16.9z"/>
			</g>
		</g>
	</g>
	<g>
		<g>
			<g>
				<path fill="#ED3C5C" d="M39.8,20.2c-0.1,0-0.2,0-0.3,0c-0.1,0-0.2,0-0.3-0.1C39.1,20,39,20,39,19.9c-0.1-0.1-0.2-0.1-0.2-0.2
					c-0.3-0.3-0.5-0.7-0.5-1.1c0-0.1,0-0.2,0-0.3c0-0.1,0.1-0.2,0.1-0.3c0-0.1,0.1-0.2,0.1-0.3c0.1-0.1,0.1-0.2,0.2-0.2
					c0.1-0.1,0.1-0.1,0.2-0.2c0.1-0.1,0.2-0.1,0.3-0.2c0.1,0,0.2-0.1,0.3-0.1c0.2,0,0.4,0,0.6,0c0.1,0,0.2,0,0.3,0.1
					c0.1,0,0.2,0.1,0.3,0.2c0.1,0,0.2,0.1,0.2,0.2c0.1,0.1,0.1,0.2,0.2,0.2c0.1,0.1,0.1,0.2,0.1,0.3c0,0.1,0.1,0.2,0.1,0.3
					c0,0.1,0,0.2,0,0.3c0,0.4-0.2,0.8-0.5,1.1C40.7,20,40.3,20.2,39.8,20.2z"/>
			</g>
		</g>
	</g>
</g>
</svg>
