<?xml version="1.0" encoding="utf-8"?>
<!-- Generator: Adobe Illustrator 18.0.0, SVG Export Plug-In . SVG Version: 6.00 Build 0)  -->
<!DOCTYPE svg PUBLIC "-//W3C//DTD SVG 1.1//EN" "http://www.w3.org/Graphics/SVG/1.1/DTD/svg11.dtd">
<svg version="1.1" id="Layer_1" xmlns="http://www.w3.org/2000/svg" xmlns:xlink="http://www.w3.org/1999/xlink" x="0px" y="0px"
	 viewBox="0 0 54 54" enable-background="new 0 0 54 54" xml:space="preserve">
<g>
	<g>
		<g>
			<g>
				<g>
					<path fill="#498CE8" d="M26.9,52.8c-5.5,0-10-4.5-10-10c0-2.5,1-5,2.7-6.8V9.6c0-4,3.3-7.3,7.3-7.3s7.3,3.3,7.3,7.3v26.3
						c1.7,1.8,2.7,4.3,2.7,6.8C36.9,48.3,32.4,52.8,26.9,52.8z M26.9,5.4c-2.3,0-4.2,1.9-4.2,4.2v27.7l-0.5,0.5
						c-1.4,1.3-2.2,3.1-2.2,5c0,3.8,3.1,6.9,6.9,6.9c3.8,0,6.9-3.1,6.9-6.9c0-1.9-0.8-3.7-2.2-5l-0.5-0.5V9.6
						C31.1,7.3,29.2,5.4,26.9,5.4z"/>
				</g>
			</g>
		</g>
		<g>
			<g>
				<g>
					<circle fill="#ED3C5C" cx="26.9" cy="42.9" r="3.6"/>
				</g>
			</g>
		</g>
		<g>
			<g>
				<g>
					<path fill="#ED3C5C" d="M26.9,44.5c-0.9,0-1.6-0.7-1.6-1.6V9.2c0-0.9,0.7-1.6,1.6-1.6s1.6,0.7,1.6,1.6v33.7
						C28.5,43.8,27.8,44.5,26.9,44.5z"/>
				</g>
			</g>
		</g>
	</g>
	<g>
		<g>
			<g>
				<g>
					<path fill="#ED3C5C" d="M45.4,12.9h-6.9c-0.9,0-1.6-0.7-1.6-1.6s0.7-1.6,1.6-1.6h6.9c0.9,0,1.6,0.7,1.6,1.6
						S46.3,12.9,45.4,12.9z"/>
				</g>
			</g>
		</g>
		<g>
			<g>
				<g>
					<path fill="#ED3C5C" d="M38.5,7.8c-0.5,0-1.1-0.3-1.4-0.8c-0.4-0.8-0.2-1.7,0.6-2.2l6-3.5C44.5,1,45.4,1.3,45.9,2
						c0.4,0.8,0.2,1.7-0.6,2.2l-6,3.5C39.1,7.8,38.8,7.8,38.5,7.8z"/>
				</g>
			</g>
		</g>
		<g>
			<g>
				<g>
					<path fill="#ED3C5C" d="M44.5,20.9c-0.3,0-0.5-0.1-0.8-0.2l-6-3.5c-0.8-0.4-1-1.4-0.6-2.2c0.4-0.8,1.4-1,2.2-0.6l6,3.5
						c0.8,0.4,1,1.4,0.6,2.2C45.6,20.6,45.1,20.9,44.5,20.9z"/>
				</g>
			</g>
		</g>
	</g>
	<g>
		<g>
			<g>
				<g>
					<path fill="#ED3C5C" d="M15.5,12.9H8.6c-0.9,0-1.6-0.7-1.6-1.6s0.7-1.6,1.6-1.6h6.9c0.9,0,1.6,0.7,1.6,1.6S16.3,12.9,15.5,12.9
						z"/>
				</g>
			</g>
		</g>
		<g>
			<g>
				<g>
					<path fill="#ED3C5C" d="M15.5,7.8c-0.3,0-0.5-0.1-0.8-0.2l-6-3.5C7.9,3.7,7.7,2.8,8.1,2c0.4-0.8,1.4-1,2.2-0.6l6,3.5
						c0.8,0.4,1,1.4,0.6,2.2C16.5,7.6,16,7.8,15.5,7.8z"/>
				</g>
			</g>
		</g>
		<g>
			<g>
				<g>
					<path fill="#ED3C5C" d="M9.5,20.9c-0.5,0-1.1-0.3-1.4-0.8c-0.4-0.8-0.2-1.7,0.6-2.2l6-3.5c0.8-0.4,1.7-0.2,2.2,0.6
						c0.4,0.8,0.2,1.7-0.6,2.2l-6,3.5C10,20.9,9.8,20.9,9.5,20.9z"/>
				</g>
			</g>
		</g>
	</g>
</g>
</svg>
