<?xml version="1.0" encoding="utf-8"?>
<!-- Generator: Adobe Illustrator 18.0.0, SVG Export Plug-In . SVG Version: 6.00 Build 0)  -->
<!DOCTYPE svg PUBLIC "-//W3C//DTD SVG 1.1//EN" "http://www.w3.org/Graphics/SVG/1.1/DTD/svg11.dtd">
<svg version="1.1" id="Layer_1" xmlns="http://www.w3.org/2000/svg" xmlns:xlink="http://www.w3.org/1999/xlink" x="0px" y="0px"
	 viewBox="0 0 54 54" enable-background="new 0 0 54 54" xml:space="preserve">
<g>
	<path fill="#FFCD57" d="M35.2,18.5c0-1.7,0.7-3.3,1.8-4.4c0,0,0,0.1,0,0.1c0,4.5,2.9,8.4,7,9.8c-0.8,0.4-1.8,0.6-2.7,0.6
		c-0.3,0-0.7,0.1-0.9,0.3c0.2,0.4,0.3,0.9,0.4,1.4c1.6,0,2.9,0.3,3.9,0.8c1.6-0.7,3.1-1.8,4.1-3.2c0.3-0.5,0.4-1.1,0.1-1.7
		c-0.3-0.5-0.8-0.8-1.4-0.8l-0.2,0c-4,0-7.2-3.2-7.2-7.2c0-0.9,0.2-1.7,0.5-2.6c0.2-0.6,0.1-1.2-0.3-1.6s-1-0.6-1.6-0.4
		c-4,1.1-6.7,4.8-6.7,8.9c0,0.2,0.1,0.5,0.2,0.7c0.7,0,1.6,0.1,2.6,0.4C35,19.3,35.2,18.9,35.2,18.5z"/>
	<path fill="#498CE8" d="M12.6,41.6h28.7c4.2,0,7.6-3.4,7.6-7.6c0,0,0-4.9-4.1-6.8c-1-0.5-2.3-0.8-3.9-0.8c-0.1-0.5-0.3-0.9-0.4-1.4
		c-1.2-3.2-3.5-4.7-5.7-5.4c-0.9-0.3-1.8-0.4-2.6-0.4c-0.7,0-1.3,0-1.6,0.1c-2-2-5.4-3.5-8.9-3.5c-6.8,0-12.4,5.3-12.9,11.9
		c-2.2,1.3-3.7,3.7-3.7,6.4C5.1,38.3,8.4,41.6,12.6,41.6z M11.8,29.5c0.3-10,9.1-10.6,10.1-10.6c2.9,0,5.8,1.4,7.7,3.5
		c3.8-1.2,8.9,1.7,8.3,7.3c1.5-0.6,2.9-0.5,3.4-0.5c2.1,0,4.7,1.8,4.7,4.9c0,2.6-2.1,4.7-4.7,4.7h-28c-2.8,0-4.8-2-4.8-4.6
		C8.4,32,9.7,30.2,11.8,29.5z"/>
</g>
</svg>
