<?xml version="1.0" encoding="utf-8"?>
<!-- Generator: Adobe Illustrator 18.0.0, SVG Export Plug-In . SVG Version: 6.00 Build 0)  -->
<!DOCTYPE svg PUBLIC "-//W3C//DTD SVG 1.1//EN" "http://www.w3.org/Graphics/SVG/1.1/DTD/svg11.dtd">
<svg version="1.1" id="Layer_1" xmlns="http://www.w3.org/2000/svg" xmlns:xlink="http://www.w3.org/1999/xlink" x="0px" y="0px"
	 viewBox="0 0 54 54" enable-background="new 0 0 54 54" xml:space="preserve">
<g>
	<g>
		<g>
			<path fill="#ED3C5C" d="M22.2,50.1l-1.6-0.9c-2.9-1.5-5-3.7-6.3-6.5c-0.9-1.8-3.3-8.5,2.8-16.9c5.7-7.7,6-16.7,6-16.8l0.2-5.2
				l3,4.2c3.9,5.5,5.5,10.4,6.2,13.7l1.2-1.4l1.3,1.2c0.1,0.1,3.3,2.9,4.7,7.5c1.2,3.8,1.3,6.6,1.2,8.3c-0.3,5.3-2.9,9.1-7.8,11.7
				l-1.4,0.7l-0.9-1.4c-0.4-0.7-2.6-4.9-4.2-8L22.2,50.1z M25.9,14.1c-0.8,3.7-2.5,8.9-6,13.8c-4.9,6.8-3.1,11.9-2.4,13.3
				c0.8,1.6,1.8,2.9,3.2,3.9l5.8-12.7l1.7,3.2c1.5,2.9,3.7,7.2,4.9,9.4c2.1-1.4,4.2-3.7,4.5-7.9c0.1-1.4,0-3.8-1-7
				c-0.6-2-1.7-3.5-2.5-4.6l-4.8,5.7l0.3-5.2C29.4,26,29.6,20.9,25.9,14.1z"/>
		</g>
	</g>
</g>
</svg>
