<?xml version="1.0" encoding="utf-8"?>
<!-- Generator: Adobe Illustrator 18.0.0, SVG Export Plug-In . SVG Version: 6.00 Build 0)  -->
<!DOCTYPE svg PUBLIC "-//W3C//DTD SVG 1.1//EN" "http://www.w3.org/Graphics/SVG/1.1/DTD/svg11.dtd">
<svg version="1.1" id="Layer_1" xmlns="http://www.w3.org/2000/svg" xmlns:xlink="http://www.w3.org/1999/xlink" x="0px" y="0px"
	 viewBox="0 0 54 54" enable-background="new 0 0 54 54" xml:space="preserve">
<g>
	<path fill="#FFCD57" d="M26.7,41.3c5,0.5,9.6-1.6,12.6-5.1c2.8-3.2-0.3-3.2-1.5-3.3C25.9,31.3,24,19.6,25.9,14.8
		c0.6-2.3-0.6-2.3-1.6-2c0,0-9.7,2.6-10.6,12.6C12.9,33.3,18.7,40.5,26.7,41.3z M17,25.7c0.4-3.5,2.3-6.5,5-8.3
		c-1.3,7.9,4.7,17.1,13.2,18C33.1,37,30,38.2,27,37.9C20.9,37.3,16.4,31.8,17,25.7z"/>
</g>
</svg>
