<?xml version="1.0" encoding="utf-8"?>
<!-- Generator: Adobe Illustrator 18.0.0, SVG Export Plug-In . SVG Version: 6.00 Build 0)  -->
<!DOCTYPE svg PUBLIC "-//W3C//DTD SVG 1.1//EN" "http://www.w3.org/Graphics/SVG/1.1/DTD/svg11.dtd">
<svg version="1.1" id="Layer_1" xmlns="http://www.w3.org/2000/svg" xmlns:xlink="http://www.w3.org/1999/xlink" x="0px" y="0px"
	 viewBox="0 0 54 54" enable-background="new 0 0 54 54" xml:space="preserve">
<g>
	<circle fill="#91BBEA" cx="31.2" cy="39.9" r="2.4"/>
	<path fill="#91BBEA" d="M32,34.1V28c0-0.4-0.4-0.8-0.8-0.8c-0.4,0-0.8,0.4-0.8,0.8v6.1c0,0.4,0.4,0.8,0.8,0.8
		C31.6,34.9,32,34.6,32,34.1z"/>
	<path fill="#91BBEA" d="M19.5,44.9c0,1.4,1.1,2.4,2.4,2.4c1.4,0,2.5-1.1,2.5-2.4c0-1.4-1.1-2.5-2.5-2.5
		C20.6,42.5,19.5,43.6,19.5,44.9z"/>
	<path fill="#91BBEA" d="M22.8,39.2V28c0-0.4-0.4-0.8-0.8-0.8c-0.4,0-0.8,0.4-0.8,0.8v11.2c0,0.4,0.4,0.8,0.8,0.8
		C22.4,40,22.8,39.6,22.8,39.2z"/>
	<path fill="#498CE8" d="M44.4,30.1c0.3,0.3,0.7,0.5,1.1,0.5c0.4,0,0.8-0.2,1.1-0.5c1.4-1.4,2.2-3.3,2.2-5.3c0-4.2-3.4-7.5-7.5-7.5
		c-0.2,0-0.4,0-0.6,0c-1.1-4.3-5.1-7.4-9.6-7.4c-0.4,0-0.8,0-1.2,0.1c-2.4-2.1-5.3-3.2-8.5-3.2c-6.7,0-12.2,5.2-12.8,11.7
		c-2.2,1.4-3.5,3.8-3.5,6.4c0,2,0.8,3.9,2.2,5.3c0.6,0.6,1.6,0.6,2.2,0c0.6-0.6,0.6-1.6,0-2.2c-0.8-0.8-1.3-1.9-1.3-3.1
		c0-1.7,1-3.3,2.6-4l0.9-0.4l0-1c0.1-5.3,4.5-9.6,9.7-9.6c2.6,0,5,1,6.9,2.9l0.6,0.6l0.8-0.2c0.4-0.1,0.9-0.1,1.4-0.1
		c3.5,0,6.5,2.8,6.8,6.3l0.2,2l1.9-0.6c0.4-0.1,0.9-0.2,1.3-0.2c2.4,0,4.4,2,4.4,4.4c0,1.2-0.5,2.3-1.3,3.1
		C43.8,28.4,43.8,29.4,44.4,30.1z"/>
</g>
</svg>
