<?xml version="1.0" encoding="utf-8"?>
<!-- Generator: Adobe Illustrator 18.0.0, SVG Export Plug-In . SVG Version: 6.00 Build 0)  -->
<!DOCTYPE svg PUBLIC "-//W3C//DTD SVG 1.1//EN" "http://www.w3.org/Graphics/SVG/1.1/DTD/svg11.dtd">
<svg version="1.1" id="Layer_1" xmlns="http://www.w3.org/2000/svg" xmlns:xlink="http://www.w3.org/1999/xlink" x="0px" y="0px"
	 viewBox="0 0 54 54" enable-background="new 0 0 54 54" xml:space="preserve">
<g>
	<path fill="#498CE8" d="M41.3,19.2c-0.2,0-0.4,0-0.6,0c-1.1-4.3-5.1-7.4-9.6-7.4c-0.4,0-0.8,0-1.2,0.1c-2.4-2.1-5.3-3.2-8.5-3.2
		c-6.7,0-12.2,5.2-12.8,11.7c-2.2,1.4-3.5,3.8-3.5,6.4c0,2,0.8,3.9,2.2,5.3c0.6,0.6,1.6,0.6,2.2,0c0.6-0.6,0.6-1.6,0-2.2
		c-0.8-0.8-1.3-1.9-1.3-3.1c0-1.7,1-3.3,2.6-4l0.9-0.4l0-1c0.1-5.3,4.5-9.6,9.7-9.6c2.6,0,5,1,6.9,2.9l0.6,0.6l0.8-0.2
		c0.4-0.1,0.9-0.1,1.4-0.1c3.5,0,6.5,2.8,6.8,6.3l0.2,2l1.9-0.6c0.4-0.1,0.9-0.2,1.3-0.2c2.4,0,4.4,2,4.4,4.4c0,1.2-0.5,2.3-1.3,3.1
		c-0.6,0.6-0.6,1.6,0,2.2c0.3,0.3,0.7,0.5,1.1,0.5c0.4,0,0.8-0.2,1.1-0.5c1.4-1.4,2.2-3.3,2.2-5.3C48.9,22.6,45.5,19.2,41.3,19.2z"
		/>
	<path fill="#FFCD57" d="M24.5,49c0,0,8.7-7.6,9-7.8c0.5-0.5,0.5-0.6,0.1-1.3c-0.3-0.5-1.2-2.2-1.4-2.6c-0.3-0.5-0.3-0.5,0-0.9
		c0.3-0.4,5.5-9.3,5.5-9.3s-8.5,7.3-9.2,7.9c-1,0.9-1,1-0.5,2.1c0.3,0.6,1.3,2.9,1.5,3.2c0.2,0.4,0.3,0.4-0.1,0.9
		C29.3,41.8,24.5,49,24.5,49z"/>
	<path fill="#91BBEA" d="M23.8,27.1c-1.1-0.7-2.6-0.3-3.3,0.9l-2.7,4.6c-0.7,1.1-0.3,2.6,0.9,3.3c1.1,0.7,2.6,0.3,3.3-0.9l2.7-4.6
		C25.3,29.2,24.9,27.7,23.8,27.1z"/>
	<path fill="#91BBEA" d="M17,39.5c-1.1-0.7-2.6-0.3-3.3,0.9L11.1,45c-0.7,1.1-0.3,2.6,0.9,3.3c1.1,0.7,2.6,0.3,3.3-0.9l2.7-4.6
		C18.5,41.6,18.1,40.2,17,39.5z"/>
</g>
</svg>
