<?xml version="1.0" encoding="utf-8"?>
<!-- Generator: Adobe Illustrator 18.0.0, SVG Export Plug-In . SVG Version: 6.00 Build 0)  -->
<!DOCTYPE svg PUBLIC "-//W3C//DTD SVG 1.1//EN" "http://www.w3.org/Graphics/SVG/1.1/DTD/svg11.dtd">
<svg version="1.1" id="Layer_1" xmlns="http://www.w3.org/2000/svg" xmlns:xlink="http://www.w3.org/1999/xlink" x="0px" y="0px"
	 viewBox="0 0 54 54" enable-background="new 0 0 54 54" xml:space="preserve">
<g>
	<path fill="#498CE8" d="M23,30.5c0-4.7-4-7-7.6-9c-3.7-2.1-6-3.5-6-6.2c0-0.9-0.7-1.6-1.6-1.6s-1.6,0.7-1.6,1.6c0,4.7,4,7,7.6,9
		c3.7,2.1,6,3.5,6,6.2s-2.3,4.1-6,6.2c-3.6,2-7.6,4.3-7.6,9c0,0.9,0.7,1.6,1.6,1.6s1.6-0.7,1.6-1.6c0-2.6,2.3-4.1,6-6.2
		C19,37.5,23,35.2,23,30.5z"/>
	<path fill="#498CE8" d="M28.8,21.5c-3.7-2.1-6-3.5-6-6.2c0-0.9-0.7-1.6-1.6-1.6s-1.6,0.7-1.6,1.6c0,4.7,4,7,7.6,9
		c3.7,2.1,6,3.5,6,6.2s-2.3,4.1-6,6.2c-3.6,2-7.6,4.3-7.6,9c0,0.9,0.7,1.6,1.6,1.6s1.6-0.7,1.6-1.6c0-2.6,2.3-4.1,6-6.2
		c3.6-2,7.6-4.3,7.6-9S32.3,23.5,28.8,21.5z"/>
	<path fill="#91BBEA" d="M33,7c-0.6-0.4-1.5-0.2-1.9,0.5l-1.5,2.6c-0.4,0.6-0.2,1.5,0.5,1.9c0.7,0.4,1.5,0.2,1.9-0.5l1.5-2.6
		C33.9,8.2,33.7,7.3,33,7z"/>
	<path fill="#91BBEA" d="M39.1,11.4l1.5-2.6c0.4-0.6,0.2-1.5-0.5-1.9c-0.6-0.4-1.5-0.2-1.9,0.5l-1.5,2.6c-0.4,0.6-0.2,1.5,0.5,1.9
		C37.8,12.3,38.7,12.1,39.1,11.4z"/>
	<path fill="#91BBEA" d="M32,14.2l-1.5,2.6c-0.4,0.6-0.2,1.5,0.5,1.9c0.6,0.4,1.5,0.2,1.9-0.5l1.5-2.6c0.4-0.6,0.2-1.5-0.5-1.9
		C33.2,13.4,32.4,13.6,32,14.2z"/>
	<path fill="#91BBEA" d="M47.1,7c-0.6-0.4-1.5-0.2-1.9,0.5l-1.5,2.6c-0.4,0.6-0.2,1.5,0.5,1.9c0.6,0.4,1.5,0.2,1.9-0.5l1.5-2.6
		C48,8.2,47.7,7.3,47.1,7z"/>
	<path fill="#91BBEA" d="M40.9,13.7c-0.6-0.4-1.5-0.2-1.9,0.5l-1.5,2.6c-0.4,0.6-0.2,1.5,0.5,1.9c0.6,0.4,1.5,0.2,1.9-0.5l1.5-2.6
		C41.7,14.9,41.5,14.1,40.9,13.7z"/>
</g>
</svg>
