<?xml version="1.0" encoding="utf-8"?>
<!-- Generator: Adobe Illustrator 18.0.0, SVG Export Plug-In . SVG Version: 6.00 Build 0)  -->
<!DOCTYPE svg PUBLIC "-//W3C//DTD SVG 1.1//EN" "http://www.w3.org/Graphics/SVG/1.1/DTD/svg11.dtd">
<svg version="1.1" id="Layer_1" xmlns="http://www.w3.org/2000/svg" xmlns:xlink="http://www.w3.org/1999/xlink" x="0px" y="0px"
	 viewBox="0 0 54 54" enable-background="new 0 0 54 54" xml:space="preserve">
<g>
	<path fill="#FFCD57" d="M35.9,39.2c4.2,0,8.3-2.1,10.7-5.5c0.3-0.5,0.4-1.1,0.1-1.7s-0.8-0.8-1.4-0.8l-0.4,0
		c-6.4,0-11.6-5.2-11.6-11.6c0-1.4,0.3-2.8,0.8-4.2c0.2-0.6,0.1-1.2-0.3-1.6s-1-0.6-1.6-0.4c-5.6,1.6-9.5,6.8-9.5,12.7
		C22.7,33.3,28.6,39.2,35.9,39.2z M30.4,17.7c-0.1,0.6-0.1,1.3-0.1,1.9c0,7.1,5,13,11.7,14.4c-1.7,1.3-3.8,2-6,2
		c-5.5,0-10-4.5-10-10C25.9,22.6,27.6,19.5,30.4,17.7z"/>
	<path fill="#498CE8" d="M12.8,45.8h19.5c1.5,0,3-0.6,4-1.7c0.6-0.6,0.6-1.7,0-2.3c-0.6-0.6-1.7-0.6-2.3,0c-0.5,0.5-1.1,0.7-1.7,0.7
		H12.8c-1.3,0-2.4-1.1-2.4-2.4c0-0.9,0.6-1.8,1.4-2.2l0.9-0.4l0-1c0.1-3.3,2.8-5.9,6-5.9c0.9,0,1.7-0.7,1.7-1.6s-0.7-1.6-1.7-1.6
		c-4.7,0-8.7,3.6-9.3,8.2c-1.5,1.1-2.4,2.8-2.4,4.7C7.1,43.3,9.6,45.8,12.8,45.8z"/>
</g>
</svg>
