<?xml version="1.0" encoding="utf-8"?>
<!-- Generator: Adobe Illustrator 18.0.0, SVG Export Plug-In . SVG Version: 6.00 Build 0)  -->
<!DOCTYPE svg PUBLIC "-//W3C//DTD SVG 1.1//EN" "http://www.w3.org/Graphics/SVG/1.1/DTD/svg11.dtd">
<svg version="1.1" id="Layer_1" xmlns="http://www.w3.org/2000/svg" xmlns:xlink="http://www.w3.org/1999/xlink" x="0px" y="0px"
	 viewBox="0 0 54 54" enable-background="new 0 0 54 54" xml:space="preserve">
<g>
	<path fill="#498CE8" d="M11.5,43.1h28.7c2.4,0,4.7-1.2,6.1-3.1c0.7-0.9,1.2-2.1,1.4-3.2c0.2-0.9-0.4-1.8-1.3-1.9
		c-0.9-0.2-1.8,0.4-1.9,1.3c-0.1,0.7-0.4,1.3-0.8,1.8c-0.8,1.1-2.1,1.7-3.5,1.7H11.5c-2.4,0-4.3-1.9-4.3-4.3c0-1.7,1-3.2,2.5-3.9
		l0.9-0.4l0-1c0.1-5.2,4.4-9.5,9.6-9.5c0.8,0,1.7,0.1,2.5,0.3c0.9,0.2,1.8-0.3,2-1.2s-0.3-1.8-1.2-2c-1.1-0.3-2.2-0.4-3.3-0.4
		c-6.7,0-12.3,5.2-12.9,11.8c-2.2,1.4-3.6,3.8-3.6,6.4C3.9,39.7,7.3,43.1,11.5,43.1z"/>
	<path fill="#FFCD57" d="M39.1,34.7c4.2,0,8.3-2.1,10.7-5.5c0.3-0.5,0.4-1.1,0.1-1.7c-0.3-0.5-0.8-0.9-1.4-0.8l-0.4,0
		c-6.4,0-11.6-5.2-11.6-11.6c0-1.4,0.3-2.8,0.8-4.2c0.2-0.6,0.1-1.2-0.3-1.6c-0.4-0.4-1-0.6-1.6-0.4c-5.6,1.6-9.5,6.8-9.5,12.7
		C25.9,28.8,31.8,34.7,39.1,34.7z M33.5,13.2c-0.1,0.6-0.1,1.3-0.1,1.9c0,7.1,5,13,11.7,14.4c-1.7,1.3-3.8,2-6,2
		c-5.5,0-10-4.5-10-10C29,18.1,30.8,15,33.5,13.2z"/>
</g>
</svg>
