<?xml version="1.0" encoding="utf-8"?>
<!-- Generator: Adobe Illustrator 18.0.0, SVG Export Plug-In . SVG Version: 6.00 Build 0)  -->
<!DOCTYPE svg PUBLIC "-//W3C//DTD SVG 1.1//EN" "http://www.w3.org/Graphics/SVG/1.1/DTD/svg11.dtd">
<svg version="1.1" id="Layer_1" xmlns="http://www.w3.org/2000/svg" xmlns:xlink="http://www.w3.org/1999/xlink" x="0px" y="0px"
	 viewBox="0 0 54 54" enable-background="new 0 0 54 54" xml:space="preserve">
<g>
	<path fill="#FFCD57" d="M34.9,31c4.7,0,8.6-3.9,8.6-8.6c0-4.7-3.9-8.6-8.6-8.6c-4.7,0-8.6,3.9-8.6,8.6C26.3,27.1,30.1,31,34.9,31z
		 M34.9,16.9c3,0,5.5,2.5,5.5,5.5c0,3-2.5,5.5-5.5,5.5c-3,0-5.5-2.5-5.5-5.5C29.4,19.3,31.8,16.9,34.9,16.9z"/>
	<path fill="#FFCD57" d="M34.9,12.8c0.9,0,1.5-0.7,1.5-1.5v-3c0-0.9-0.7-1.5-1.5-1.5s-1.5,0.7-1.5,1.5v3
		C33.3,12.1,34,12.8,34.9,12.8z"/>
	<path fill="#FFCD57" d="M33.3,33.5v3c0,0.9,0.7,1.5,1.5,1.5s1.5-0.7,1.5-1.5v-3c0-0.9-0.7-1.5-1.5-1.5S33.3,32.7,33.3,33.5z"/>
	<path fill="#FFCD57" d="M44.5,22.4c0,0.9,0.7,1.5,1.5,1.5h3c0.9,0,1.5-0.7,1.5-1.5s-0.7-1.5-1.5-1.5h-3
		C45.2,20.8,44.5,21.5,44.5,22.4z"/>
	<path fill="#FFCD57" d="M20.7,23.9h3c0.9,0,1.5-0.7,1.5-1.5s-0.7-1.5-1.5-1.5h-3c-0.9,0-1.5,0.7-1.5,1.5S19.9,23.9,20.7,23.9z"/>
	<path fill="#FFCD57" d="M42.8,16c0.4,0,0.8-0.2,1.1-0.5l2.1-2.1c0.6-0.6,0.6-1.6,0-2.2c-0.6-0.6-1.6-0.6-2.2,0l-2.1,2.1
		c-0.6,0.6-0.6,1.6,0,2.2C42,15.9,42.4,16,42.8,16z"/>
	<path fill="#FFCD57" d="M25.9,29.2l-2.1,2.1c-0.6,0.6-0.6,1.6,0,2.2c0.3,0.3,0.7,0.5,1.1,0.5s0.8-0.2,1.1-0.5l2.1-2.1
		c0.6-0.6,0.6-1.6,0-2.2C27.5,28.6,26.5,28.6,25.9,29.2z"/>
	<path fill="#FFCD57" d="M43.9,29.2c-0.6-0.6-1.6-0.6-2.2,0c-0.6,0.6-0.6,1.6,0,2.2l2.1,2.1c0.3,0.3,0.7,0.5,1.1,0.5
		s0.8-0.2,1.1-0.5c0.6-0.6,0.6-1.6,0-2.2L43.9,29.2z"/>
	<path fill="#FFCD57" d="M25.9,15.6c0.3,0.3,0.7,0.5,1.1,0.5s0.8-0.2,1.1-0.5c0.6-0.6,0.6-1.6,0-2.2L26,11.3c-0.6-0.6-1.6-0.6-2.2,0
		c-0.6,0.6-0.6,1.6,0,2.2L25.9,15.6z"/>
	<path fill="#498CE8" d="M11,43.1h28.7c2.4,0,4.7-1.2,6.1-3.1c0.7-0.9,1.2-2.1,1.4-3.2c0.2-0.9-0.4-1.8-1.3-1.9
		c-0.9-0.2-1.8,0.4-1.9,1.3c-0.1,0.7-0.4,1.3-0.8,1.8c-0.8,1.1-2.1,1.7-3.5,1.7H11c-2.4,0-4.3-1.9-4.3-4.3c0-1.7,1-3.2,2.5-3.9
		l0.9-0.4l0-1c0.1-4.4,3.1-8.1,7.3-9.2c0.9-0.2,1.4-1.1,1.2-2c-0.2-0.9-1.1-1.4-2-1.2C11.3,19,7.5,23.6,6.9,29
		c-2.2,1.4-3.6,3.8-3.6,6.4C3.4,39.7,6.8,43.1,11,43.1z"/>
</g>
</svg>
