<?xml version="1.0" encoding="utf-8"?>
<!-- Generator: Adobe Illustrator 18.0.0, SVG Export Plug-In . SVG Version: 6.00 Build 0)  -->
<!DOCTYPE svg PUBLIC "-//W3C//DTD SVG 1.1//EN" "http://www.w3.org/Graphics/SVG/1.1/DTD/svg11.dtd">
<svg version="1.1" id="Layer_1" xmlns="http://www.w3.org/2000/svg" xmlns:xlink="http://www.w3.org/1999/xlink" x="0px" y="0px"
	 viewBox="0 0 54 54" enable-background="new 0 0 54 54" xml:space="preserve">
<g>
	<g>
		<g>
			<path fill="#FFCD57" d="M23.8,33.7c-0.6,0.9-10.5,16-10.5,16S31.3,34.1,32,33.5c1.1-1,1-1.2,0.3-2.7c-0.6-1-2.4-4.5-2.9-5.4
				c-0.5-1-0.6-0.9-0.1-1.8c0.5-0.9,11.5-19.3,11.5-19.3S23.1,19.4,21.7,20.7c-2.1,1.8-2,2.1-1,4.5c0.5,1.2,2.8,5.9,3.2,6.7
				C24.3,32.7,24.4,32.7,23.8,33.7z"/>
		</g>
	</g>
</g>
</svg>
