<?xml version="1.0" encoding="utf-8"?>
<!-- Generator: Adobe Illustrator 18.0.0, SVG Export Plug-In . SVG Version: 6.00 Build 0)  -->
<!DOCTYPE svg PUBLIC "-//W3C//DTD SVG 1.1//EN" "http://www.w3.org/Graphics/SVG/1.1/DTD/svg11.dtd">
<svg version="1.1" id="Layer_1" xmlns="http://www.w3.org/2000/svg" xmlns:xlink="http://www.w3.org/1999/xlink" x="0px" y="0px"
	 viewBox="0 0 54 54" enable-background="new 0 0 54 54" xml:space="preserve">
<g>
	<path fill="#498CE8" d="M24.2,29.5c0-4.7-4-7-7.6-9c-3.7-2.1-6-3.5-6-6.2c0-0.9-0.7-1.6-1.6-1.6s-1.6,0.7-1.6,1.6c0,4.7,4,7,7.6,9
		c3.7,2.1,6,3.5,6,6.2s-2.3,4.1-6,6.2c-3.6,2-7.6,4.3-7.6,9c0,0.9,0.7,1.6,1.6,1.6s1.6-0.7,1.6-1.6c0-2.6,2.3-4.1,6-6.2
		C20.1,36.5,24.2,34.2,24.2,29.5z"/>
	<path fill="#498CE8" d="M29.9,20.5c-3.7-2.1-6-3.5-6-6.2c0-0.9-0.7-1.6-1.6-1.6s-1.6,0.7-1.6,1.6c0,4.7,4,7,7.6,9
		c3.7,2.1,6,3.5,6,6.2s-2.3,4.1-6,6.2c-3.6,2-7.6,4.3-7.6,9c0,0.9,0.7,1.6,1.6,1.6s1.6-0.7,1.6-1.6c0-2.6,2.3-4.1,6-6.2
		c3.6-2,7.6-4.3,7.6-9S33.5,22.5,29.9,20.5z"/>
	<path fill="#91BBEA" d="M46.4,11.1c-0.4-0.7-1.4-1-2.1-0.6l-2.2,1.3V9.3c0-0.9-0.7-1.6-1.6-1.6c-0.9,0-1.6,0.7-1.6,1.6v2.5
		l-2.2-1.3c-0.7-0.4-1.7-0.2-2.1,0.6c-0.4,0.7-0.2,1.7,0.6,2.1l2.2,1.3l-2.2,1.3c-0.7,0.4-1,1.4-0.6,2.1c0.4,0.7,1.4,1,2.1,0.6
		l2.2-1.3v2.5c0,0.9,0.7,1.6,1.6,1.6c0.9,0,1.6-0.7,1.6-1.6v-2.5l2.2,1.3c0.7,0.4,1.7,0.2,2.1-0.6c0.4-0.7,0.2-1.7-0.6-2.1l-2.2-1.3
		l2.2-1.3C46.6,12.8,46.9,11.9,46.4,11.1z"/>
</g>
</svg>
