<?xml version="1.0" encoding="utf-8"?>
<!-- Generator: Adobe Illustrator 18.0.0, SVG Export Plug-In . SVG Version: 6.00 Build 0)  -->
<!DOCTYPE svg PUBLIC "-//W3C//DTD SVG 1.1//EN" "http://www.w3.org/Graphics/SVG/1.1/DTD/svg11.dtd">
<svg version="1.1" id="Layer_1" xmlns="http://www.w3.org/2000/svg" xmlns:xlink="http://www.w3.org/1999/xlink" x="0px" y="0px"
	 viewBox="0 0 54 54" enable-background="new 0 0 54 54" xml:space="preserve">
<g>
	<path fill="#FFCD57" d="M34.7,18.1c0-1.7,0.7-3.3,1.8-4.4c0,0,0,0.1,0,0.1c0,4.5,2.9,8.4,7,9.8c-0.8,0.4-1.8,0.6-2.7,0.6
		c-0.3,0-0.5,0.1-0.7,0.2c0.3,0.5,0.5,1.1,0.6,1.7c0.2,0,0.4,0,0.6,0c1,0,2,0.2,3,0.6c1.6-0.7,3.1-1.8,4.1-3.2
		c0.3-0.5,0.4-1.1,0.1-1.7c-0.3-0.5-0.8-0.9-1.4-0.8l-0.2,0c-4,0-7.2-3.2-7.2-7.2c0-0.9,0.2-1.7,0.5-2.6c0.2-0.6,0.1-1.2-0.3-1.6
		s-1-0.6-1.6-0.4c-4,1.1-6.7,4.8-6.7,8.9c0,0.2,0,0.4,0.1,0.6c0.9,0,1.7,0.2,2.6,0.5C34.5,18.9,34.7,18.5,34.7,18.1z"/>
	<path fill="#91BBEA" d="M28.8,35c-1.1-0.7-2.6-0.3-3.3,0.9l-2.6,4.6c-0.7,1.1-0.3,2.6,0.9,3.3c1.1,0.7,2.6,0.3,3.3-0.9l2.7-4.6
		C30.3,37.1,29.9,35.6,28.8,35z"/>
	<path fill="#498CE8" d="M44.4,39c0.3,0.3,0.7,0.5,1.1,0.5c0.4,0,0.8-0.2,1.1-0.5c1.4-1.4,2.2-3.3,2.2-5.3c0-3.1-1.9-5.8-4.6-6.9
		c-0.9-0.4-1.9-0.6-3-0.6c-0.2,0-0.4,0-0.6,0c-0.2-0.6-0.4-1.2-0.6-1.7c-1.2-2.5-3.3-4.4-5.9-5.2c-0.8-0.3-1.7-0.4-2.6-0.5
		c-0.2,0-0.3,0-0.5,0c-0.4,0-0.8,0-1.2,0.1c-2.4-2.1-5.3-3.2-8.5-3.2c-6.7,0-12.2,5.2-12.8,11.7c-2.2,1.4-3.5,3.8-3.5,6.4
		c0,2,0.8,3.9,2.2,5.3c0.6,0.6,1.6,0.6,2.2,0c0.6-0.6,0.6-1.6,0-2.2c-0.8-0.8-1.3-1.9-1.3-3.1c0-1.7,1-3.3,2.6-4l0.9-0.4l0-1
		c0.1-5.3,4.5-9.6,9.7-9.6c2.6,0,5,1,6.9,2.9l0.6,0.6l0.8-0.2c0.4-0.1,0.9-0.1,1.4-0.1c3.5,0,6.5,2.8,6.8,6.3l0.2,2l1.9-0.6
		c0.4-0.1,0.9-0.2,1.3-0.2c2.4,0,4.4,2,4.4,4.4c0,1.2-0.5,2.3-1.3,3.1C43.8,37.4,43.8,38.4,44.4,39z"/>
</g>
</svg>
