<?xml version="1.0" encoding="utf-8"?>
<!-- Generator: Adobe Illustrator 18.0.0, SVG Export Plug-In . SVG Version: 6.00 Build 0)  -->
<!DOCTYPE svg PUBLIC "-//W3C//DTD SVG 1.1//EN" "http://www.w3.org/Graphics/SVG/1.1/DTD/svg11.dtd">
<svg version="1.1" id="Layer_1" xmlns="http://www.w3.org/2000/svg" xmlns:xlink="http://www.w3.org/1999/xlink" x="0px" y="0px"
	 viewBox="0 0 54 54" enable-background="new 0 0 54 54" xml:space="preserve">
<g>
	<path fill="#FFCD57" d="M36.8,18.5c2.2,0,4,1.8,4,4c0,1.1-0.5,2.2-1.3,2.9c0.2,0.4,0.3,0.8,0.4,1.3c0.2,0,0.4,0,0.6,0
		c0.7,0,1.3,0.1,1.9,0.2c1-1.2,1.5-2.8,1.5-4.4c0-4-3.2-7.2-7.2-7.2c-2.7,0-5.2,1.6-6.4,3.9c1.2,0,2.3,0.2,3.4,0.6
		C34.5,19,35.6,18.5,36.8,18.5z"/>
	<path fill="#FFCD57" d="M36.8,14.3c0.9,0,1.6-0.7,1.6-1.6v-1.5c0-0.9-0.7-1.6-1.6-1.6s-1.6,0.7-1.6,1.6v1.5
		C35.2,13.6,35.9,14.3,36.8,14.3z"/>
	<path fill="#FFCD57" d="M49.7,22.6c0-0.9-0.7-1.6-1.6-1.6h-1.5c-0.9,0-1.6,0.7-1.6,1.6s0.7,1.6,1.6,1.6h1.5
		C49,24.1,49.7,23.4,49.7,22.6z"/>
	<path fill="#FFCD57" d="M43.7,17.2c0.4,0,0.8-0.2,1.1-0.5l1.1-1.1c0.6-0.6,0.6-1.6,0-2.2c-0.6-0.6-1.6-0.6-2.2,0l-1.1,1.1
		c-0.6,0.6-0.6,1.6,0,2.2C42.9,17,43.3,17.2,43.7,17.2z"/>
	<path fill="#FFCD57" d="M27.7,13.4c-0.6,0.6-0.6,1.6,0,2.2l1.1,1.1c0.3,0.3,0.7,0.5,1.1,0.5c0.4,0,0.8-0.2,1.1-0.5
		c0.6-0.6,0.6-1.6,0-2.2l-1.1-1.1C29.3,12.8,28.3,12.8,27.7,13.4z"/>
	<path fill="#498CE8" d="M43.7,39.6c0.3,0.3,0.7,0.5,1.1,0.5c0.4,0,0.8-0.2,1.1-0.5c1.4-1.4,2.2-3.3,2.2-5.3c0-3.5-2.4-6.5-5.7-7.3
		c-0.6-0.2-1.2-0.2-1.9-0.2c-0.2,0-0.4,0-0.6,0c-0.1-0.4-0.3-0.9-0.4-1.3c-1.1-2.6-3.2-4.6-5.8-5.6c-1.1-0.4-2.2-0.6-3.4-0.6
		c0,0,0,0,0,0c-0.4,0-0.8,0-1.2,0.1c-2.4-2.1-5.3-3.2-8.5-3.2c-6.7,0-12.2,5.2-12.8,11.7c-2.2,1.4-3.5,3.8-3.5,6.4
		c0,2,0.8,3.9,2.2,5.3c0.6,0.6,1.6,0.6,2.2,0c0.6-0.6,0.6-1.6,0-2.2c-0.8-0.8-1.3-1.9-1.3-3.1c0-1.7,1-3.3,2.6-4l0.9-0.4l0-1
		c0.1-5.3,4.5-9.6,9.7-9.6c2.6,0,5,1,6.9,2.9l0.6,0.6l0.8-0.2c0.4-0.1,0.9-0.1,1.4-0.1c3.5,0,6.5,2.8,6.8,6.3l0.2,2l1.9-0.6
		c0.4-0.1,0.9-0.2,1.3-0.2c2.4,0,4.4,2,4.4,4.4c0,1.2-0.5,2.3-1.3,3.1C43,38,43,39,43.7,39.6z"/>
	<path fill="#91BBEA" d="M37.4,37.7c-0.3-0.6-1.1-0.8-1.6-0.4l-1.7,1v-1.9c0-0.7-0.5-1.2-1.2-1.2c-0.7,0-1.2,0.5-1.2,1.2v1.9l-1.7-1
		c-0.6-0.3-1.3-0.1-1.6,0.4c-0.3,0.6-0.1,1.3,0.4,1.6l1.7,1l-1.7,1c-0.6,0.3-0.8,1.1-0.4,1.6c0.3,0.6,1.1,0.8,1.6,0.4l1.7-1v1.9
		c0,0.7,0.5,1.2,1.2,1.2c0.7,0,1.2-0.5,1.2-1.2v-1.9l1.7,1c0.6,0.3,1.3,0.1,1.6-0.4c0.3-0.6,0.1-1.3-0.4-1.6l-1.7-1l1.7-1
		C37.5,39,37.7,38.3,37.4,37.7z"/>
	<path fill="#91BBEA" d="M23.9,37.7c-0.3-0.6-1.1-0.8-1.6-0.4l-1.7,1v-1.9c0-0.7-0.5-1.2-1.2-1.2c-0.7,0-1.2,0.5-1.2,1.2v1.9l-1.7-1
		c-0.6-0.3-1.3-0.1-1.6,0.4c-0.3,0.6-0.1,1.3,0.4,1.6l1.7,1l-1.7,1c-0.6,0.3-0.8,1.1-0.4,1.6c0.3,0.6,1.1,0.8,1.6,0.4l1.7-1v1.9
		c0,0.7,0.5,1.2,1.2,1.2c0.7,0,1.2-0.5,1.2-1.2v-1.9l1.7,1c0.6,0.3,1.3,0.1,1.6-0.4c0.3-0.6,0.1-1.3-0.4-1.6l-1.7-1l1.7-1
		C24,39,24.2,38.3,23.9,37.7z"/>
</g>
</svg>
