<?xml version="1.0" encoding="utf-8"?>
<!-- Generator: Adobe Illustrator 18.0.0, SVG Export Plug-In . SVG Version: 6.00 Build 0)  -->
<!DOCTYPE svg PUBLIC "-//W3C//DTD SVG 1.1//EN" "http://www.w3.org/Graphics/SVG/1.1/DTD/svg11.dtd">
<svg version="1.1" id="Layer_1" xmlns="http://www.w3.org/2000/svg" xmlns:xlink="http://www.w3.org/1999/xlink" x="0px" y="0px"
	 viewBox="0 0 54 54" enable-background="new 0 0 54 54" xml:space="preserve">
<g>
	<path fill="#FFCD57" d="M39.9,10.2c-0.4-0.4-1-0.6-1.6-0.4c-4,1.1-6.7,4.8-6.7,8.9c0,0.2,0,0.4,0.1,0.6c0.9,0,1.7,0.2,2.6,0.5
		c0.3-0.3,0.5-0.7,0.5-1.1c0-1.7,0.7-3.3,1.8-4.4c0,0,0,0.1,0,0.1c0,4.5,2.9,8.4,7,9.8c-0.8,0.4-1.8,0.6-2.7,0.6
		c-0.3,0-0.5,0.1-0.7,0.2c0.3,0.5,0.5,1.1,0.6,1.7c0.2,0,0.4,0,0.6,0c1,0,2,0.2,3,0.6c1.6-0.7,3.1-1.8,4.1-3.2
		c0.3-0.5,0.4-1.1,0.1-1.7c-0.3-0.5-0.8-0.9-1.4-0.8l-0.2,0c-4,0-7.2-3.2-7.2-7.2c0-0.9,0.2-1.7,0.5-2.6
		C40.4,11.3,40.3,10.6,39.9,10.2z"/>
	<path fill="#498CE8" d="M40.8,26.7c-0.2-0.6-0.4-1.2-0.6-1.7c-1.2-2.5-3.3-4.4-5.9-5.2c-0.8-0.3-1.7-0.4-2.6-0.5
		c-0.2,0-0.3,0-0.5,0c-0.4,0-0.8,0-1.2,0.1c-2.4-2.1-5.3-3.2-8.5-3.2c-6.7,0-12.2,5.2-12.8,11.7c-2.2,1.4-3.5,3.8-3.5,6.4
		c0,2,0.8,3.9,2.2,5.3c0.6,0.6,1.6,0.6,2.2,0c0.6-0.6,0.6-1.6,0-2.2c-0.8-0.8-1.3-1.9-1.3-3.1c0-1.7,1-3.3,2.6-4l0.9-0.4l0-1
		c0.1-5.3,4.5-9.6,9.7-9.6c2.6,0,5,1,6.9,2.9l0.6,0.6l0.8-0.2c0.4-0.1,0.9-0.1,1.4-0.1c3.5,0,6.5,2.8,6.8,6.3l0.2,2l1.9-0.6
		c0.4-0.1,0.9-0.2,1.3-0.2c2.4,0,4.4,2,4.4,4.4c0,1.2-0.5,2.3-1.3,3.1c-0.6,0.6-0.6,1.6,0,2.2c0.3,0.3,0.7,0.5,1.1,0.5
		c0.4,0,0.8-0.2,1.1-0.5c1.4-1.4,2.2-3.3,2.2-5.3c0-3.1-1.9-5.8-4.6-6.9c-0.9-0.4-1.9-0.6-3-0.6C41.2,26.7,41,26.7,40.8,26.7z"/>
	<path fill="#91BBEA" d="M29.2,42.9c0.3,0.6,1.1,0.8,1.6,0.4l1.7-1v1.9c0,0.7,0.5,1.2,1.2,1.2c0.7,0,1.2-0.5,1.2-1.2v-1.9l1.7,1
		c0.6,0.3,1.3,0.1,1.6-0.4c0.3-0.6,0.1-1.3-0.4-1.6l-1.7-1l1.7-1c0.6-0.3,0.8-1.1,0.4-1.6c-0.3-0.6-1.1-0.8-1.6-0.4l-1.7,1v-1.9
		c0-0.7-0.5-1.2-1.2-1.2c-0.7,0-1.2,0.5-1.2,1.2v1.9l-1.7-1c-0.6-0.3-1.3-0.1-1.6,0.4c-0.3,0.6-0.1,1.3,0.4,1.6l1.7,1l-1.7,1
		C29,41.6,28.9,42.4,29.2,42.9z"/>
	<path fill="#91BBEA" d="M15.7,42.9c0.3,0.6,1.1,0.8,1.6,0.4l1.7-1v1.9c0,0.7,0.5,1.2,1.2,1.2c0.7,0,1.2-0.5,1.2-1.2v-1.9l1.7,1
		c0.6,0.3,1.3,0.1,1.6-0.4c0.3-0.6,0.1-1.3-0.4-1.6l-1.7-1l1.7-1c0.6-0.3,0.8-1.1,0.4-1.6c-0.3-0.6-1.1-0.8-1.6-0.4l-1.7,1v-1.9
		c0-0.7-0.5-1.2-1.2-1.2c-0.7,0-1.2,0.5-1.2,1.2v1.9l-1.7-1c-0.6-0.3-1.3-0.1-1.6,0.4c-0.3,0.6-0.1,1.3,0.4,1.6l1.7,1l-1.7,1
		C15.5,41.6,15.4,42.4,15.7,42.9z"/>
</g>
</svg>
