<?xml version="1.0" encoding="utf-8"?>
<!-- Generator: Adobe Illustrator 18.0.0, SVG Export Plug-In . SVG Version: 6.00 Build 0)  -->
<!DOCTYPE svg PUBLIC "-//W3C//DTD SVG 1.1//EN" "http://www.w3.org/Graphics/SVG/1.1/DTD/svg11.dtd">
<svg version="1.1" id="Layer_1" xmlns="http://www.w3.org/2000/svg" xmlns:xlink="http://www.w3.org/1999/xlink" x="0px" y="0px"
	 viewBox="0 0 54 54" enable-background="new 0 0 54 54" xml:space="preserve">
<g>
	<path fill="#498CE8" d="M42.7,11.3C41.8,11.3,41,12,41,13c0,6.1-1.9,12-5.4,17.1c-0.5,0.7-0.4,1.7,0.3,2.2c0.3,0.2,0.7,0.4,1,0.4
		c0.5,0,1-0.3,1.3-0.7c4-5.6,6.1-12.2,6.1-19C44.3,12,43.6,11.3,42.7,11.3z"/>
	<path fill="#498CE8" d="M32.4,11.3c-0.9,0-1.6,0.7-1.6,1.6c0,6.7-3.4,12.8-9,16.4c-0.7,0.5-0.9,1.4-0.6,2.1
		c0.3,0.5,0.8,0.9,1.5,0.9c0.3,0,0.6-0.1,0.9-0.3c6.6-4.2,10.5-11.4,10.5-19.2C34.1,12,33.3,11.3,32.4,11.3z"/>
	<path fill="#91BBEA" d="M19.1,31.1c-0.3-0.6-1.1-0.8-1.6-0.4l-1.7,1v-1.9c0-0.7-0.5-1.2-1.2-1.2c-0.7,0-1.2,0.5-1.2,1.2v1.9l-1.7-1
		c-0.6-0.3-1.3-0.1-1.6,0.4c-0.3,0.6-0.1,1.3,0.4,1.6l1.7,1l-1.7,1c-0.6,0.3-0.8,1.1-0.4,1.6c0.3,0.6,1.1,0.8,1.6,0.4l1.7-1v1.9
		c0,0.7,0.5,1.2,1.2,1.2c0.7,0,1.2-0.5,1.2-1.2v-1.9l1.7,1c0.6,0.3,1.3,0.1,1.6-0.4c0.3-0.6,0.1-1.3-0.4-1.6l-1.7-1l1.7-1
		C19.3,32.4,19.5,31.7,19.1,31.1z"/>
	<path fill="#91BBEA" d="M36.6,34.9c-0.3-0.6-1.1-0.8-1.6-0.4l-1.7,1v-1.9c0-0.7-0.5-1.2-1.2-1.2c-0.7,0-1.2,0.5-1.2,1.2v1.9l-1.7-1
		c-0.6-0.3-1.3-0.1-1.6,0.4c-0.3,0.6-0.1,1.3,0.4,1.6l1.7,1l-1.7,1c-0.6,0.3-0.8,1.1-0.4,1.6c0.3,0.6,1.1,0.8,1.6,0.4l1.7-1v1.9
		c0,0.7,0.5,1.2,1.2,1.2c0.7,0,1.2-0.5,1.2-1.2v-1.9l1.7,1c0.6,0.3,1.3,0.1,1.6-0.4c0.3-0.6,0.1-1.3-0.4-1.6l-1.7-1l1.7-1
		C36.8,36.2,37,35.5,36.6,34.9z"/>
	<path fill="#91BBEA" d="M21.2,21c0,0.7,0.5,1.2,1.2,1.2c0.7,0,1.2-0.5,1.2-1.2v-1.9l1.7,1c0.6,0.3,1.3,0.1,1.6-0.4
		c0.3-0.6,0.1-1.3-0.4-1.6l-1.7-1l1.7-1c0.6-0.3,0.8-1.1,0.4-1.6c-0.3-0.6-1.1-0.8-1.6-0.4l-1.7,1V13c0-0.7-0.5-1.2-1.2-1.2
		c-0.7,0-1.2,0.5-1.2,1.2v1.9l-1.7-1c-0.6-0.3-1.3-0.1-1.6,0.4c-0.3,0.6-0.1,1.3,0.4,1.6l1.7,1l-1.7,1c-0.6,0.3-0.8,1.1-0.4,1.6
		c0.3,0.6,1.1,0.8,1.6,0.4l1.7-1V21z"/>
</g>
</svg>
