<?xml version="1.0" encoding="iso-8859-1"?>
<!-- Generator: Adobe Illustrator 18.1.1, SVG Export Plug-In . SVG Version: 6.00 Build 0)  -->
<svg version="1.1" id="Layer_1" xmlns="http://www.w3.org/2000/svg" xmlns:xlink="http://www.w3.org/1999/xlink" x="0px" y="0px"
	 viewBox="0 0 40 40" style="enable-background:new 0 0 40 40;" xml:space="preserve">
<g>
	<path style="fill-rule:evenodd;clip-rule:evenodd;fill:#498CE8;" d="M24.168,26.393c-0.191-0.348-0.613-0.466-0.943-0.265
		l-2.524,1.533v-3.078c0-0.402-0.32-0.726-0.714-0.726c-0.394,0-0.711,0.325-0.711,0.726v3.078l-2.527-1.533
		c-0.33-0.201-0.75-0.082-0.94,0.265c-0.191,0.345-0.077,0.788,0.252,0.989l2.547,1.546l-2.547,1.548
		c-0.33,0.198-0.443,0.641-0.252,0.989c0.191,0.345,0.61,0.464,0.94,0.265l2.527-1.533v3.078c0,0.399,0.317,0.724,0.711,0.724
		c0.394,0,0.714-0.325,0.714-0.724v-3.078l2.524,1.533c0.33,0.198,0.752,0.08,0.943-0.265c0.191-0.348,0.077-0.791-0.252-0.989
		l-2.547-1.548l2.547-1.546C24.245,27.181,24.358,26.738,24.168,26.393z"/>
	<path style="fill-rule:evenodd;clip-rule:evenodd;fill:#498CE8;" d="M12.448,18.699c-0.191-0.348-0.613-0.466-0.943-0.265
		l-2.524,1.53v-3.078c0-0.399-0.319-0.724-0.713-0.724c-0.391,0-0.711,0.325-0.711,0.724v3.078l-2.527-1.53
		c-0.33-0.201-0.75-0.082-0.94,0.265c-0.19,0.345-0.077,0.788,0.252,0.989l2.547,1.545l-2.547,1.545
		c-0.33,0.201-0.443,0.644-0.252,0.992c0.191,0.345,0.611,0.464,0.94,0.263l2.527-1.53v3.078c0,0.399,0.32,0.724,0.711,0.724
		c0.394,0,0.713-0.325,0.713-0.724v-3.078l2.524,1.53c0.33,0.201,0.752,0.082,0.943-0.263c0.191-0.348,0.077-0.791-0.252-0.992
		l-2.547-1.545l2.547-1.545C12.525,19.487,12.638,19.044,12.448,18.699z"/>
	<path style="fill-rule:evenodd;clip-rule:evenodd;fill:#498CE8;" d="M16.087,15.771c0.191,0.345,0.613,0.464,0.943,0.265
		l2.524-1.533v3.078c0,0.399,0.32,0.724,0.714,0.724c0.394,0,0.713-0.325,0.713-0.724v-3.078l2.524,1.533
		c0.33,0.198,0.752,0.08,0.943-0.265c0.191-0.348,0.077-0.791-0.252-0.992l-2.547-1.545l2.547-1.546
		c0.33-0.201,0.443-0.644,0.252-0.989c-0.191-0.348-0.613-0.466-0.943-0.265l-2.524,1.53V8.886c0-0.399-0.319-0.724-0.713-0.724
		c-0.394,0-0.714,0.325-0.714,0.724v3.078l-2.524-1.53c-0.33-0.201-0.752-0.082-0.943,0.265c-0.188,0.345-0.077,0.788,0.252,0.989
		l2.55,1.546l-2.55,1.545C16.01,14.98,15.899,15.423,16.087,15.771z"/>
	<path style="fill-rule:evenodd;clip-rule:evenodd;fill:#498CE8;" d="M35.058,11.768c0.116-0.306,0.229-0.618,0.327-0.943
		l-1.048-0.835c-4.291,12.544-20.055,10.44-20.055,10.44l-0.067,2.331c0,0,15.648,0.502,20.485-10.148"/>
</g>
<path style="fill-rule:evenodd;clip-rule:evenodd;fill:#498CE8;" d="M35.657,12.493c0.783,9.469-8.822,12.621-8.822,12.621
	l0.744,2.215c0,0,10.787-5.247,9.232-15.478l-1.249-0.182"/>
</svg>
