<?xml version="1.0" encoding="utf-8"?>
<!-- Generator: Adobe Illustrator 18.0.0, SVG Export Plug-In . SVG Version: 6.00 Build 0)  -->
<!DOCTYPE svg PUBLIC "-//W3C//DTD SVG 1.1//EN" "http://www.w3.org/Graphics/SVG/1.1/DTD/svg11.dtd">
<svg version="1.1" id="Layer_1" xmlns="http://www.w3.org/2000/svg" xmlns:xlink="http://www.w3.org/1999/xlink" x="0px" y="0px"
	 viewBox="0 0 54 54" enable-background="new 0 0 54 54" xml:space="preserve">
<g>
	<path fill="#498CE8" d="M14.7,30.4c0-1.1-0.9-1.9-1.9-1.9H5.7c-1.1,0-1.9,0.9-1.9,1.9c0,1.1,0.9,1.9,1.9,1.9l7.1,0
		C13.9,32.3,14.7,31.4,14.7,30.4z"/>
	<path fill="#498CE8" d="M19.9,32.3l7.1,0c1.1,0,1.9-0.9,1.9-1.9c0-1.1-0.9-1.9-1.9-1.9h-7.1c-1.1,0-1.9,0.9-1.9,1.9
		C18,31.4,18.9,32.3,19.9,32.3z"/>
	<path fill="#498CE8" d="M32.2,30.4c0,1.1,0.9,1.9,1.9,1.9l7.1,0c1.1,0,1.9-0.9,1.9-1.9c0-1.1-0.9-1.9-1.9-1.9h-7.1
		C33.1,28.5,32.2,29.3,32.2,30.4z"/>
	<path fill="#498CE8" d="M14.7,16.9c0-1.1-0.9-1.9-1.9-1.9H5.7c-1.1,0-1.9,0.9-1.9,1.9c0,1.1,0.9,1.9,1.9,1.9l7.1,0
		C13.9,18.8,14.7,17.9,14.7,16.9z"/>
	<path fill="#498CE8" d="M18,16.9c0,1.1,0.9,1.9,1.9,1.9l7.1,0c1.1,0,1.9-0.9,1.9-1.9c0-1.1-0.9-1.9-1.9-1.9h-7.1
		C18.9,14.9,18,15.8,18,16.9z"/>
	<path fill="#498CE8" d="M43.1,16.9c0-1.1-0.9-1.9-1.9-1.9h-7.1c-1.1,0-1.9,0.9-1.9,1.9c0,1.1,0.9,1.9,1.9,1.9l7.1,0
		C42.3,18.8,43.1,17.9,43.1,16.9z"/>
	<path fill="#498CE8" d="M19.9,35.2h-7.1c-1.1,0-1.9,0.9-1.9,1.9c0,1.1,0.9,1.9,1.9,1.9l7.1,0c1.1,0,1.9-0.9,1.9-1.9
		C21.8,36.1,20.9,35.2,19.9,35.2z"/>
	<path fill="#498CE8" d="M34.1,35.2H27c-1.1,0-1.9,0.9-1.9,1.9c0,1.1,0.9,1.9,1.9,1.9l7.1,0c1.1,0,1.9-0.9,1.9-1.9
		C36,36.1,35.1,35.2,34.1,35.2z"/>
	<path fill="#498CE8" d="M48.3,35.2h-7.1c-1.1,0-1.9,0.9-1.9,1.9c0,1.1,0.9,1.9,1.9,1.9l7.1,0c1.1,0,1.9-0.9,1.9-1.9
		C50.2,36.1,49.3,35.2,48.3,35.2z"/>
	<path fill="#498CE8" d="M12.8,25.5l7.1,0c1.1,0,1.9-0.9,1.9-1.9c0-1.1-0.9-1.9-1.9-1.9h-7.1c-1.1,0-1.9,0.9-1.9,1.9
		C10.9,24.7,11.7,25.5,12.8,25.5z"/>
	<path fill="#498CE8" d="M34.1,21.7H27c-1.1,0-1.9,0.9-1.9,1.9c0,1.1,0.9,1.9,1.9,1.9l7.1,0c1.1,0,1.9-0.9,1.9-1.9
		C36,22.6,35.1,21.7,34.1,21.7z"/>
	<path fill="#498CE8" d="M48.3,21.7h-7.1c-1.1,0-1.9,0.9-1.9,1.9c0,1.1,0.9,1.9,1.9,1.9l7.1,0c1.1,0,1.9-0.9,1.9-1.9
		C50.2,22.6,49.3,21.7,48.3,21.7z"/>
</g>
</svg>
