<?xml version="1.0" encoding="utf-8"?>
<!-- Generator: Adobe Illustrator 18.0.0, SVG Export Plug-In . SVG Version: 6.00 Build 0)  -->
<!DOCTYPE svg PUBLIC "-//W3C//DTD SVG 1.1//EN" "http://www.w3.org/Graphics/SVG/1.1/DTD/svg11.dtd">
<svg version="1.1" id="Layer_1" xmlns="http://www.w3.org/2000/svg" xmlns:xlink="http://www.w3.org/1999/xlink" x="0px" y="0px"
	 viewBox="0 0 54 54" enable-background="new 0 0 54 54" xml:space="preserve">
<g>
	<path fill="#498CE8" d="M32.6,34.4l1.7,0.4c0.1,0,0.3,0.1,0.4,0.1c0.7,0,1.3-0.5,1.5-1.2c0.2-0.8-0.3-1.7-1.1-1.9l-0.8-0.2l0.2-0.8
		c0.2-0.8-0.3-1.7-1.1-1.9c-0.8-0.2-1.7,0.3-1.9,1.1l-0.4,1.7L28.6,33v-2.8l1.2-1.2c0.6-0.6,0.6-1.6,0-2.2c-0.6-0.6-1.6-0.6-2.2,0
		l-0.6,0.6l-0.6-0.6c-0.6-0.6-1.6-0.6-2.2,0c-0.6,0.6-0.6,1.6,0,2.2l1.2,1.2V33l-2.4-1.4L22.6,30c-0.2-0.8-1.1-1.3-1.9-1.1
		c-0.8,0.2-1.3,1.1-1.1,1.9l0.2,0.8L19,31.8c-0.8,0.2-1.3,1.1-1.1,1.9c0.2,0.7,0.8,1.2,1.5,1.2c0.1,0,0.3,0,0.4-0.1l1.6-0.4l2.4,1.4
		l-2.4,1.4l-1.7-0.4c-0.8-0.2-1.7,0.3-1.9,1.1c-0.2,0.8,0.3,1.7,1.1,1.9l0.8,0.2l-0.2,0.8c-0.2,0.8,0.3,1.7,1.1,1.9
		c0.1,0,0.3,0.1,0.4,0.1c0.7,0,1.3-0.5,1.5-1.2l0.4-1.7l2.4-1.4v2.8l-1.2,1.2c-0.6,0.6-0.6,1.6,0,2.2c0.3,0.3,0.7,0.5,1.1,0.5
		s0.8-0.2,1.1-0.5l0.6-0.6l0.6,0.6c0.6,0.6,1.6,0.6,2.2,0c0.6-0.6,0.6-1.6,0-2.2l-1.2-1.2v-2.8l2.4,1.4l0.4,1.7
		c0.2,0.7,0.8,1.2,1.5,1.2c0.1,0,0.3,0,0.4-0.1c0.8-0.2,1.3-1.1,1.1-1.9L34.3,40l0.8-0.2c0.8-0.2,1.3-1.1,1.1-1.9
		c-0.2-0.8-1.1-1.3-1.9-1.1l-1.7,0.4l-2.4-1.4L32.6,34.4z"/>
	<path fill="#91BBEA" d="M45.1,19.2l-1.7,0.4L41,18.2l2.4-1.4l1.6,0.4c0.1,0,0.3,0.1,0.4,0.1c0.7,0,1.3-0.5,1.5-1.2
		c0.2-0.8-0.3-1.7-1.1-1.9L45.2,14l0.2-0.8c0.2-0.8-0.3-1.7-1.1-1.9c-0.8-0.2-1.7,0.3-1.9,1.1l-0.4,1.7l-2.4,1.4v-2.8l1.2-1.2
		c0.6-0.6,0.6-1.6,0-2.2c-0.6-0.6-1.6-0.6-2.2,0l-0.6,0.6l-0.6-0.6c-0.6-0.6-1.6-0.6-2.2,0c-0.6,0.6-0.6,1.6,0,2.2l1.2,1.2v2.8
		l-2.4-1.4l-0.4-1.7c-0.2-0.8-1.1-1.3-1.9-1.1c-0.8,0.2-1.3,1.1-1.1,1.9l0.2,0.8l-0.8,0.2c-0.8,0.2-1.3,1.1-1.1,1.9
		c0.2,0.7,0.8,1.2,1.5,1.2c0.1,0,0.3,0,0.4-0.1l1.6-0.4l2.4,1.4l-2.4,1.4l-1.7-0.4c-0.8-0.2-1.7,0.3-1.9,1.1s0.3,1.7,1.1,1.9
		l0.8,0.2l-0.2,0.8c-0.2,0.8,0.3,1.7,1.1,1.9c0.1,0,0.3,0.1,0.4,0.1c0.7,0,1.3-0.5,1.5-1.2l0.4-1.6l2.4-1.4v2.8L35.1,25
		c-0.6,0.6-0.6,1.6,0,2.2c0.6,0.6,1.6,0.6,2.2,0l0.6-0.6l0.6,0.6c0.3,0.3,0.7,0.5,1.1,0.5s0.8-0.2,1.1-0.5c0.6-0.6,0.6-1.6,0-2.2
		l-1.2-1.2V21l2.4,1.4l0.4,1.6c0.2,0.7,0.8,1.2,1.5,1.2c0.1,0,0.3,0,0.4-0.1c0.8-0.2,1.3-1.1,1.1-1.9l-0.2-0.8l0.8-0.2
		c0.8-0.2,1.3-1.1,1.1-1.9C46.8,19.5,46,19,45.1,19.2z"/>
	<path fill="#91BBEA" d="M18.9,25l-1.2-1.2V21l2.4,1.4l0.4,1.6c0.2,0.7,0.8,1.2,1.5,1.2c0.1,0,0.3,0,0.4-0.1
		c0.8-0.2,1.3-1.1,1.1-1.9l-0.2-0.8l0.8-0.2c0.8-0.2,1.3-1.1,1.1-1.9c-0.2-0.8-1.1-1.3-1.9-1.1l-1.7,0.4l-2.4-1.4l2.4-1.4l1.6,0.4
		c0.1,0,0.3,0.1,0.4,0.1c0.7,0,1.3-0.5,1.5-1.2c0.2-0.8-0.3-1.7-1.1-1.9L23.4,14l0.2-0.8c0.2-0.8-0.3-1.7-1.1-1.9
		c-0.8-0.2-1.7,0.3-1.9,1.1l-0.4,1.7l-2.4,1.4v-2.8l1.2-1.2c0.6-0.6,0.6-1.6,0-2.2c-0.6-0.6-1.6-0.6-2.2,0l-0.6,0.6l-0.6-0.6
		c-0.6-0.6-1.6-0.6-2.2,0c-0.6,0.6-0.6,1.6,0,2.2l1.2,1.2v2.8l-2.4-1.4l-0.4-1.7c-0.2-0.8-1.1-1.3-1.9-1.1c-0.8,0.2-1.3,1.1-1.1,1.9
		L8.8,14l-0.8,0.2c-0.8,0.2-1.3,1.1-1.1,1.9c0.2,0.7,0.8,1.2,1.5,1.2c0.1,0,0.3,0,0.4-0.1l1.6-0.4l2.4,1.4l-2.4,1.4l-1.7-0.4
		C8,19,7.2,19.5,6.9,20.3s0.3,1.7,1.1,1.9l0.8,0.2l-0.2,0.8c-0.2,0.8,0.3,1.7,1.1,1.9c0.1,0,0.3,0.1,0.4,0.1c0.7,0,1.3-0.5,1.5-1.2
		l0.4-1.6l2.4-1.4v2.8L13.3,25c-0.6,0.6-0.6,1.6,0,2.2c0.6,0.6,1.6,0.6,2.2,0l0.6-0.6l0.6,0.6c0.3,0.3,0.7,0.5,1.1,0.5
		s0.8-0.2,1.1-0.5C19.5,26.6,19.5,25.6,18.9,25z"/>
</g>
</svg>
