<?xml version="1.0" encoding="utf-8"?>
<!-- Generator: Adobe Illustrator 18.0.0, SVG Export Plug-In . SVG Version: 6.00 Build 0)  -->
<!DOCTYPE svg PUBLIC "-//W3C//DTD SVG 1.1//EN" "http://www.w3.org/Graphics/SVG/1.1/DTD/svg11.dtd">
<svg version="1.1" id="Layer_1" xmlns="http://www.w3.org/2000/svg" xmlns:xlink="http://www.w3.org/1999/xlink" x="0px" y="0px"
	 viewBox="0 0 54 54" enable-background="new 0 0 54 54" xml:space="preserve">
<path fill="#FFCD57" d="M50.2,20.7h-3c-0.9,0-1.5,0.7-1.5,1.5s0.7,1.5,1.5,1.5h3c0.9,0,1.5-0.7,1.5-1.5S51.1,20.7,50.2,20.7z"/>
<g>
	<path fill="#91BBEA" d="M19.7,34.5c-1.1-0.7-2.6-0.3-3.3,0.9L13.7,40c-0.7,1.1-0.3,2.6,0.9,3.3c1.1,0.7,2.6,0.3,3.3-0.9l2.7-4.6
		C21.2,36.6,20.8,35.2,19.7,34.5z"/>
	<path fill="#498CE8" d="M6.6,37.8c0.6-0.6,0.6-1.6,0-2.2c-0.8-0.8-1.3-1.9-1.3-3.1c0-1.7,1-3.3,2.6-4L8.8,28l0-1
		c0.1-5.3,4.4-9.6,9.7-9.6c1.3,0,2.5,0.2,3.7,0.7c0.8,0.3,1.7,0,2.1-0.8s0-1.7-0.8-2.1c-1.6-0.7-3.2-1-4.9-1
		c-6.7,0-12.2,5.2-12.8,11.7c-2.2,1.4-3.5,3.8-3.5,6.4c0,2,0.8,3.9,2.2,5.3c0.3,0.3,0.7,0.5,1.1,0.5S6.3,38.1,6.6,37.8z"/>
	<path fill="#91BBEA" d="M33.1,36.3c-0.3-0.6-1.1-0.8-1.6-0.4l-1.7,1v-1.9c0-0.7-0.5-1.2-1.2-1.2c-0.7,0-1.2,0.5-1.2,1.2v1.9l-1.7-1
		c-0.6-0.3-1.3-0.1-1.6,0.4c-0.3,0.6-0.1,1.3,0.4,1.6l1.7,1l-1.7,1c-0.6,0.3-0.8,1.1-0.4,1.6c0.3,0.6,1.1,0.8,1.6,0.4l1.7-1v1.9
		c0,0.7,0.5,1.2,1.2,1.2c0.7,0,1.2-0.5,1.2-1.2V41l1.7,1c0.6,0.3,1.3,0.1,1.6-0.4c0.3-0.6,0.1-1.3-0.4-1.6l-1.7-1l1.7-1
		C33.2,37.6,33.4,36.9,33.1,36.3z"/>
	<path fill="#FFCD57" d="M44.7,22.2c0-4.7-3.9-8.6-8.6-8.6s-8.6,3.9-8.6,8.6s3.9,8.6,8.6,8.6S44.7,27,44.7,22.2z M36.1,27.7
		c-3,0-5.5-2.5-5.5-5.5s2.5-5.5,5.5-5.5s5.5,2.5,5.5,5.5S39.1,27.7,36.1,27.7z"/>
	<path fill="#FFCD57" d="M37.6,11.1v-3c0-0.9-0.7-1.5-1.5-1.5s-1.5,0.7-1.5,1.5v3c0,0.9,0.7,1.5,1.5,1.5S37.6,11.9,37.6,11.1z"/>
	<path fill="#FFCD57" d="M34.5,33.4v3c0,0.9,0.7,1.5,1.5,1.5s1.5-0.7,1.5-1.5v-3c0-0.9-0.7-1.5-1.5-1.5S34.5,32.5,34.5,33.4z"/>
	<path fill="#FFCD57" d="M24.9,23.8c0.9,0,1.5-0.7,1.5-1.5s-0.7-1.5-1.5-1.5h-3c-0.9,0-1.5,0.7-1.5,1.5s0.7,1.5,1.5,1.5H24.9z"/>
	<path fill="#FFCD57" d="M47.2,11.1c-0.6-0.6-1.6-0.6-2.2,0l-2.1,2.1c-0.6,0.6-0.6,1.6,0,2.2c0.3,0.3,0.7,0.5,1.1,0.5
		s0.8-0.2,1.1-0.5l2.1-2.1C47.8,12.7,47.8,11.7,47.2,11.1z"/>
	<path fill="#FFCD57" d="M25,33.4c0.3,0.3,0.7,0.5,1.1,0.5s0.8-0.2,1.1-0.5l2.1-2.1c0.6-0.6,0.6-1.6,0-2.2s-1.6-0.6-2.2,0L25,31.2
		C24.3,31.8,24.3,32.7,25,33.4z"/>
	<path fill="#FFCD57" d="M45,33.4c0.3,0.3,0.7,0.5,1.1,0.5s0.8-0.2,1.1-0.5c0.6-0.6,0.6-1.6,0-2.2L45.1,29c-0.6-0.6-1.6-0.6-2.2,0
		s-0.6,1.6,0,2.2L45,33.4z"/>
	<path fill="#FFCD57" d="M27.1,15.4c0.3,0.3,0.7,0.5,1.1,0.5s0.8-0.2,1.1-0.5c0.6-0.6,0.6-1.6,0-2.2l-2.1-2.1
		c-0.6-0.6-1.6-0.6-2.2,0s-0.6,1.6,0,2.2L27.1,15.4z"/>
</g>
</svg>
