<?xml version="1.0" encoding="utf-8"?>
<!-- Generator: Adobe Illustrator 18.0.0, SVG Export Plug-In . SVG Version: 6.00 Build 0)  -->
<!DOCTYPE svg PUBLIC "-//W3C//DTD SVG 1.1//EN" "http://www.w3.org/Graphics/SVG/1.1/DTD/svg11.dtd">
<svg version="1.1" id="Layer_1" xmlns="http://www.w3.org/2000/svg" xmlns:xlink="http://www.w3.org/1999/xlink" x="0px" y="0px"
	 viewBox="0 0 54 54" enable-background="new 0 0 54 54" xml:space="preserve">
<g>
	<path fill="#498CE8" d="M6.6,39.2c0.6-0.6,0.6-1.6,0-2.2c-0.8-0.8-1.3-1.9-1.3-3.1c0-1.7,1-3.3,2.6-4l0.9-0.4l0-1
		c0.1-5.3,4.5-9.6,9.7-9.6c1.3,0,2.5,0.2,3.7,0.7c0.8,0.3,1.7,0,2.1-0.8c0.3-0.8,0-1.7-0.8-2.1c-1.6-0.7-3.2-1-4.9-1
		c-6.7,0-12.2,5.2-12.8,11.7c-2.2,1.4-3.5,3.8-3.5,6.4c0,2,0.8,3.9,2.2,5.3c0.3,0.3,0.7,0.5,1.1,0.5S6.3,39.5,6.6,39.2z"/>
	<path fill="#91BBEA" d="M33.1,37.7c-0.3-0.6-1.1-0.8-1.6-0.4l-1.7,1v-1.9c0-0.7-0.5-1.2-1.2-1.2c-0.7,0-1.2,0.5-1.2,1.2v1.9l-1.7-1
		c-0.6-0.3-1.3-0.1-1.6,0.4c-0.3,0.6-0.1,1.3,0.4,1.6l1.7,1l-1.7,1c-0.6,0.3-0.8,1.1-0.4,1.6c0.3,0.6,1.1,0.8,1.6,0.4l1.7-1v1.9
		c0,0.7,0.5,1.2,1.2,1.2c0.7,0,1.2-0.5,1.2-1.2v-1.9l1.7,1c0.6,0.3,1.3,0.1,1.6-0.4c0.3-0.6,0.1-1.3-0.4-1.6l-1.7-1l1.7-1
		C33.2,39,33.4,38.3,33.1,37.7z"/>
	<path fill="#91BBEA" d="M20.7,37.7c-0.3-0.6-1.1-0.8-1.6-0.4l-1.7,1v-1.9c0-0.7-0.5-1.2-1.2-1.2c-0.7,0-1.2,0.5-1.2,1.2v1.9l-1.7-1
		c-0.6-0.3-1.3-0.1-1.6,0.4c-0.3,0.6-0.1,1.3,0.4,1.6l1.7,1l-1.7,1c-0.6,0.3-0.8,1.1-0.4,1.6c0.3,0.6,1.1,0.8,1.6,0.4l1.7-1v1.9
		c0,0.7,0.5,1.2,1.2,1.2c0.7,0,1.2-0.5,1.2-1.2v-1.9l1.7,1c0.6,0.3,1.3,0.1,1.6-0.4c0.3-0.6,0.1-1.3-0.4-1.6l-1.7-1l1.7-1
		C20.8,39,21,38.3,20.7,37.7z"/>
	<path fill="#FFCD57" d="M44.7,23.7c0-4.7-3.9-8.6-8.6-8.6c-4.7,0-8.6,3.9-8.6,8.6s3.9,8.6,8.6,8.6C40.8,32.3,44.7,28.4,44.7,23.7z
		 M36.1,29.2c-3,0-5.5-2.5-5.5-5.5s2.5-5.5,5.5-5.5c3,0,5.5,2.5,5.5,5.5S39.1,29.2,36.1,29.2z"/>
	<path fill="#FFCD57" d="M36.1,7.9c-0.9,0-1.5,0.7-1.5,1.5v3c0,0.9,0.7,1.5,1.5,1.5s1.5-0.7,1.5-1.5v-3C37.6,8.6,36.9,7.9,36.1,7.9z
		"/>
	<path fill="#FFCD57" d="M34.5,34.8v3c0,0.9,0.7,1.5,1.5,1.5s1.5-0.7,1.5-1.5v-3c0-0.9-0.7-1.5-1.5-1.5S34.5,34,34.5,34.8z"/>
	<path fill="#FFCD57" d="M50.2,22.1h-3c-0.9,0-1.5,0.7-1.5,1.5s0.7,1.5,1.5,1.5h3c0.9,0,1.5-0.7,1.5-1.5S51.1,22.1,50.2,22.1z"/>
	<path fill="#FFCD57" d="M24.9,25.2c0.9,0,1.5-0.7,1.5-1.5s-0.7-1.5-1.5-1.5h-3c-0.9,0-1.5,0.7-1.5,1.5s0.7,1.5,1.5,1.5H24.9z"/>
	<path fill="#FFCD57" d="M47.2,12.6c-0.6-0.6-1.6-0.6-2.2,0l-2.1,2.1c-0.6,0.6-0.6,1.6,0,2.2c0.3,0.3,0.7,0.5,1.1,0.5
		s0.8-0.2,1.1-0.5l2.1-2.1C47.8,14.1,47.8,13.2,47.2,12.6z"/>
	<path fill="#FFCD57" d="M25,34.8c0.3,0.3,0.7,0.5,1.1,0.5s0.8-0.2,1.1-0.5l2.1-2.1c0.6-0.6,0.6-1.6,0-2.2c-0.6-0.6-1.6-0.6-2.2,0
		L25,32.6C24.3,33.2,24.3,34.2,25,34.8z"/>
	<path fill="#FFCD57" d="M45,34.8c0.3,0.3,0.7,0.5,1.1,0.5s0.8-0.2,1.1-0.5c0.6-0.6,0.6-1.6,0-2.2l-2.1-2.1c-0.6-0.6-1.6-0.6-2.2,0
		c-0.6,0.6-0.6,1.6,0,2.2L45,34.8z"/>
	<path fill="#FFCD57" d="M25,12.6c-0.6,0.6-0.6,1.6,0,2.2l2.1,2.1c0.3,0.3,0.7,0.5,1.1,0.5s0.8-0.2,1.1-0.5c0.6-0.6,0.6-1.6,0-2.2
		l-2.1-2.1C26.5,11.9,25.6,11.9,25,12.6z"/>
</g>
</svg>
