<?xml version="1.0" encoding="utf-8"?>
<!-- Generator: Adobe Illustrator 18.0.0, SVG Export Plug-In . SVG Version: 6.00 Build 0)  -->
<!DOCTYPE svg PUBLIC "-//W3C//DTD SVG 1.1//EN" "http://www.w3.org/Graphics/SVG/1.1/DTD/svg11.dtd">
<svg version="1.1" id="Layer_1" xmlns="http://www.w3.org/2000/svg" xmlns:xlink="http://www.w3.org/1999/xlink" x="0px" y="0px"
	 viewBox="0 0 54 54" enable-background="new 0 0 54 54" xml:space="preserve">
<g>
	<path fill="#498CE8" d="M19.6,18.9c1.3,0,2.5,0.2,3.7,0.7c0.8,0.3,1.7,0,2.1-0.8c0.3-0.8,0-1.7-0.8-2.1c-1.6-0.7-3.2-1-4.9-1
		c-6.7,0-12.2,5.2-12.8,11.7c-2.2,1.4-3.5,3.8-3.5,6.4c0,2,0.8,3.9,2.2,5.3c0.3,0.3,0.7,0.5,1.1,0.5s0.8-0.2,1.1-0.5
		c0.6-0.6,0.6-1.6,0-2.2c-0.8-0.8-1.3-1.9-1.3-3.1c0-1.7,1-3.3,2.6-4l0.9-0.4l0-1C10,23.2,14.4,18.9,19.6,18.9z"/>
	<path fill="#91BBEA" d="M29.7,35.1c-0.7,0-1.2,0.5-1.2,1.2v1.9l-1.7-1c-0.6-0.3-1.3-0.1-1.6,0.4c-0.3,0.6-0.1,1.3,0.4,1.6l1.7,1
		l-1.7,1c-0.6,0.3-0.8,1.1-0.4,1.6c0.3,0.6,1.1,0.8,1.6,0.4l1.7-1v1.9c0,0.7,0.5,1.2,1.2,1.2c0.7,0,1.2-0.5,1.2-1.2v-1.9l1.7,1
		c0.6,0.3,1.3,0.1,1.6-0.4c0.3-0.6,0.1-1.3-0.4-1.6l-1.7-1l1.7-1c0.6-0.3,0.8-1.1,0.4-1.6c-0.3-0.6-1.1-0.8-1.6-0.4l-1.7,1v-1.9
		C30.9,35.7,30.3,35.1,29.7,35.1z"/>
	<path fill="#91BBEA" d="M21.8,37.7c-0.3-0.6-1.1-0.8-1.6-0.4l-1.7,1v-1.9c0-0.7-0.5-1.2-1.2-1.2c-0.7,0-1.2,0.5-1.2,1.2v1.9l-1.7-1
		c-0.6-0.3-1.3-0.1-1.6,0.4c-0.3,0.6-0.1,1.3,0.4,1.6l1.7,1l-1.7,1c-0.6,0.3-0.8,1.1-0.4,1.6c0.3,0.6,1.1,0.8,1.6,0.4l1.7-1v1.9
		c0,0.7,0.5,1.2,1.2,1.2c0.7,0,1.2-0.5,1.2-1.2v-1.9l1.7,1c0.6,0.3,1.3,0.1,1.6-0.4c0.3-0.6,0.1-1.3-0.4-1.6l-1.7-1l1.7-1
		C21.9,39,22.1,38.3,21.8,37.7z"/>
	<path fill="#FFCD57" d="M49.1,27.8l-0.4,0c-6.4,0-11.6-5.2-11.6-11.6c0-1.4,0.3-2.8,0.8-4.2c0.2-0.6,0.1-1.2-0.3-1.6
		c-0.4-0.4-1-0.6-1.6-0.4c-5.6,1.6-9.5,6.8-9.5,12.7c0,7.3,5.9,13.2,13.2,13.2c4.2,0,8.3-2.1,10.7-5.5c0.3-0.5,0.4-1.1,0.1-1.7
		C50.3,28.1,49.7,27.8,49.1,27.8z M39.7,32.7c-5.5,0-10-4.5-10-10c0-3.4,1.7-6.5,4.5-8.3c-0.1,0.6-0.1,1.3-0.1,1.9
		c0,7.1,5,13,11.7,14.4C44,32,41.9,32.7,39.7,32.7z"/>
</g>
</svg>
