<?xml version="1.0" encoding="utf-8"?>
<!-- Generator: Adobe Illustrator 18.0.0, SVG Export Plug-In . SVG Version: 6.00 Build 0)  -->
<!DOCTYPE svg PUBLIC "-//W3C//DTD SVG 1.1//EN" "http://www.w3.org/Graphics/SVG/1.1/DTD/svg11.dtd">
<svg version="1.1" id="Layer_1" xmlns="http://www.w3.org/2000/svg" xmlns:xlink="http://www.w3.org/1999/xlink" x="0px" y="0px"
	 viewBox="0 0 54 54" enable-background="new 0 0 54 54" xml:space="preserve">
<g>
	<path fill="#498CE8" d="M2.2,26.9c0,2,0.8,3.9,2.2,5.3c0.3,0.3,0.7,0.5,1.1,0.5c0.4,0,0.8-0.2,1.1-0.5c0.6-0.6,0.6-1.6,0-2.2
		c-0.8-0.8-1.3-1.9-1.3-3.1c0-1.7,1-3.3,2.6-4l0.9-0.4l0-1c0.1-5.3,4.5-9.6,9.7-9.6c1.3,0,2.5,0.2,3.7,0.7c0.8,0.3,1.7,0,2.1-0.8
		c0.3-0.8,0-1.7-0.9-2.1c-1.6-0.7-3.2-1-4.9-1C11.9,8.8,6.3,14,5.8,20.5C3.6,21.9,2.2,24.3,2.2,26.9z"/>
	<path fill="#FFCD57" d="M22.5,37.7c-1,0.9-1,1-0.5,2.1c0.3,0.6,1.3,2.9,1.5,3.2c0.2,0.4,0.3,0.4-0.1,0.9c-0.3,0.4-5.1,7.7-5.1,7.7
		s8.7-7.6,9-7.8c0.5-0.5,0.5-0.6,0.1-1.3c-0.3-0.5-1.2-2.2-1.4-2.6c-0.3-0.5-0.3-0.5,0-0.9c0.3-0.4,5.5-9.3,5.5-9.3
		S23.2,37.1,22.5,37.7z"/>
	<path fill="#91BBEA" d="M13.7,38.5c1.1,0.7,2.6,0.3,3.3-0.9l2.7-4.6c0.7-1.1,0.3-2.6-0.9-3.3c-1.1-0.7-2.6-0.3-3.3,0.9l-2.7,4.6
		C12.1,36.4,12.5,37.8,13.7,38.5z"/>
	<path fill="#91BBEA" d="M11.9,42.2c-1.1-0.7-2.6-0.3-3.3,0.9L6,47.7c-0.7,1.1-0.3,2.6,0.9,3.3c1.1,0.7,2.6,0.3,3.3-0.9l2.7-4.6
		C13.4,44.3,13,42.9,11.9,42.2z"/>
	<path fill="#FFCD57" d="M44.7,16.7c0-4.7-3.9-8.6-8.6-8.6c-4.7,0-8.6,3.9-8.6,8.6s3.9,8.6,8.6,8.6C40.8,25.3,44.7,21.5,44.7,16.7z
		 M36.1,22.2c-3,0-5.5-2.5-5.5-5.5s2.5-5.5,5.5-5.5c3,0,5.5,2.5,5.5,5.5S39.1,22.2,36.1,22.2z"/>
	<path fill="#FFCD57" d="M34.5,5.6c0,0.9,0.7,1.5,1.5,1.5s1.5-0.7,1.5-1.5v-3c0-0.9-0.7-1.5-1.5-1.5s-1.5,0.7-1.5,1.5V5.6z"/>
	<path fill="#FFCD57" d="M37.6,30.9v-3c0-0.9-0.7-1.5-1.5-1.5s-1.5,0.7-1.5,1.5v3c0,0.9,0.7,1.5,1.5,1.5S37.6,31.8,37.6,30.9z"/>
	<path fill="#FFCD57" d="M51.8,16.7c0-0.9-0.7-1.5-1.5-1.5h-3c-0.9,0-1.5,0.7-1.5,1.5s0.7,1.5,1.5,1.5h3
		C51.1,18.3,51.8,17.6,51.8,16.7z"/>
	<path fill="#FFCD57" d="M20.3,16.7c0,0.9,0.7,1.5,1.5,1.5h3c0.9,0,1.5-0.7,1.5-1.5s-0.7-1.5-1.5-1.5h-3
		C21,15.2,20.3,15.9,20.3,16.7z"/>
	<path fill="#FFCD57" d="M47.2,5.6C46.6,5,45.6,5,45,5.6l-2.1,2.1c-0.6,0.6-0.6,1.6,0,2.2c0.3,0.3,0.7,0.5,1.1,0.5s0.8-0.2,1.1-0.5
		l2.1-2.1C47.8,7.2,47.8,6.2,47.2,5.6z"/>
	<path fill="#FFCD57" d="M25,27.8c0.3,0.3,0.7,0.5,1.1,0.5s0.8-0.2,1.1-0.5l2.1-2.1c0.6-0.6,0.6-1.6,0-2.2c-0.6-0.6-1.6-0.6-2.2,0
		L25,25.6C24.3,26.3,24.3,27.2,25,27.8z"/>
	<path fill="#FFCD57" d="M47.2,25.6l-2.1-2.1c-0.6-0.6-1.6-0.6-2.2,0c-0.6,0.6-0.6,1.6,0,2.2l2.1,2.1c0.3,0.3,0.7,0.5,1.1,0.5
		s0.8-0.2,1.1-0.5C47.8,27.2,47.8,26.3,47.2,25.6z"/>
	<path fill="#FFCD57" d="M29.3,9.9c0.6-0.6,0.6-1.6,0-2.2l-2.1-2.1C26.5,5,25.6,5,25,5.6c-0.6,0.6-0.6,1.6,0,2.2l2.1,2.1
		c0.3,0.3,0.7,0.5,1.1,0.5S29,10.2,29.3,9.9z"/>
</g>
</svg>
