<?xml version="1.0" encoding="utf-8"?>
<!-- Generator: Adobe Illustrator 18.0.0, SVG Export Plug-In . SVG Version: 6.00 Build 0)  -->
<!DOCTYPE svg PUBLIC "-//W3C//DTD SVG 1.1//EN" "http://www.w3.org/Graphics/SVG/1.1/DTD/svg11.dtd">
<svg version="1.1" id="Layer_1" xmlns="http://www.w3.org/2000/svg" xmlns:xlink="http://www.w3.org/1999/xlink" x="0px" y="0px"
	 viewBox="0 0 54 54" enable-background="new 0 0 54 54" xml:space="preserve">
<g>
	<path fill="#91BBEA" d="M19.7,36.3c-1.1-0.7-2.6-0.3-3.3,0.9l-2.6,4.6c-0.7,1.1-0.3,2.6,0.9,3.3c1.1,0.7,2.6,0.3,3.3-0.9l2.7-4.6
		C21.2,38.5,20.8,37,19.7,36.3z"/>
	<path fill="#91BBEA" d="M27.7,37.2l-2.6,4.6c-0.7,1.1-0.3,2.6,0.9,3.3c1.1,0.7,2.6,0.3,3.3-0.9l2.7-4.6c0.7-1.1,0.3-2.6-0.9-3.3
		C29.8,35.7,28.4,36.1,27.7,37.2z"/>
	<path fill="#498CE8" d="M5.5,40.1c0.4,0,0.8-0.2,1.1-0.5c0.6-0.6,0.6-1.6,0-2.2c-0.8-0.8-1.3-1.9-1.3-3.1c0-1.7,1-3.3,2.6-4
		l0.9-0.4l0-1c0.1-5.3,4.4-9.6,9.7-9.6c1.3,0,2.5,0.2,3.7,0.7c0.8,0.3,1.7,0,2.1-0.8c0.3-0.8,0-1.7-0.8-2.1c-1.6-0.7-3.2-1-4.9-1
		c-6.7,0-12.2,5.2-12.8,11.7c-2.2,1.4-3.5,3.8-3.5,6.4c0,2,0.8,3.9,2.2,5.3C4.7,39.9,5.1,40.1,5.5,40.1z"/>
	<path fill="#FFCD57" d="M27.5,24.1c0,4.7,3.9,8.6,8.6,8.6s8.6-3.9,8.6-8.6c0-4.7-3.9-8.6-8.6-8.6S27.5,19.3,27.5,24.1z M41.6,24.1
		c0,3-2.5,5.5-5.5,5.5s-5.5-2.5-5.5-5.5c0-3,2.5-5.5,5.5-5.5S41.6,21,41.6,24.1z"/>
	<path fill="#FFCD57" d="M37.6,12.9v-3c0-0.9-0.7-1.5-1.5-1.5S34.5,9,34.5,9.9v3c0,0.9,0.7,1.5,1.5,1.5S37.6,13.8,37.6,12.9z"/>
	<path fill="#FFCD57" d="M37.6,38.2v-3c0-0.9-0.7-1.5-1.5-1.5s-1.5,0.7-1.5,1.5v3c0,0.9,0.7,1.5,1.5,1.5S37.6,39.1,37.6,38.2z"/>
	<path fill="#FFCD57" d="M45.7,24.1c0,0.9,0.7,1.5,1.5,1.5h3c0.9,0,1.5-0.7,1.5-1.5s-0.7-1.5-1.5-1.5h-3
		C46.4,22.5,45.7,23.2,45.7,24.1z"/>
	<path fill="#FFCD57" d="M20.3,24.1c0,0.9,0.7,1.5,1.5,1.5h3c0.9,0,1.5-0.7,1.5-1.5s-0.7-1.5-1.5-1.5h-3
		C21,22.5,20.3,23.2,20.3,24.1z"/>
	<path fill="#FFCD57" d="M44,17.7c0.4,0,0.8-0.2,1.1-0.5l2.1-2.1c0.6-0.6,0.6-1.6,0-2.2c-0.6-0.6-1.6-0.6-2.2,0l-2.1,2.1
		c-0.6,0.6-0.6,1.6,0,2.2C43.2,17.6,43.6,17.7,44,17.7z"/>
	<path fill="#FFCD57" d="M27.1,30.9L25,33c-0.6,0.6-0.6,1.6,0,2.2c0.3,0.3,0.7,0.5,1.1,0.5s0.8-0.2,1.1-0.5l2.1-2.1
		c0.6-0.6,0.6-1.6,0-2.2C28.7,30.3,27.7,30.3,27.1,30.9z"/>
	<path fill="#FFCD57" d="M46.1,35.6c0.4,0,0.8-0.2,1.1-0.5c0.6-0.6,0.6-1.6,0-2.2l-2.1-2.1c-0.6-0.6-1.6-0.6-2.2,0
		c-0.6,0.6-0.6,1.6,0,2.2l2.1,2.1C45.3,35.5,45.7,35.6,46.1,35.6z"/>
	<path fill="#FFCD57" d="M29.3,17.3c0.6-0.6,0.6-1.6,0-2.2L27.1,13c-0.6-0.6-1.6-0.6-2.2,0c-0.6,0.6-0.6,1.6,0,2.2l2.1,2.1
		c0.3,0.3,0.7,0.5,1.1,0.5S29,17.6,29.3,17.3z"/>
</g>
</svg>
