<?xml version="1.0" encoding="UTF-8" standalone="no"?>
<!-- Generator: Adobe Illustrator 18.0.0, SVG Export Plug-In . SVG Version: 6.00 Build 0)  -->

<svg
   xmlns:dc="http://purl.org/dc/elements/1.1/"
   xmlns:cc="http://creativecommons.org/ns#"
   xmlns:rdf="http://www.w3.org/1999/02/22-rdf-syntax-ns#"
   xmlns:svg="http://www.w3.org/2000/svg"
   xmlns="http://www.w3.org/2000/svg"
   xmlns:sodipodi="http://sodipodi.sourceforge.net/DTD/sodipodi-0.dtd"
   xmlns:inkscape="http://www.inkscape.org/namespaces/inkscape"
   version="1.1"
   id="Layer_1"
   x="0px"
   y="0px"
   viewBox="0 0 54 54"
   enable-background="new 0 0 54 54"
   xml:space="preserve"
   sodipodi:docname="vejas_n.svg"
   inkscape:version="0.92.1 r15371"><metadata
     id="metadata11"><rdf:RDF><cc:Work
         rdf:about=""><dc:format>image/svg+xml</dc:format><dc:type
           rdf:resource="http://purl.org/dc/dcmitype/StillImage" /></cc:Work></rdf:RDF></metadata><defs
     id="defs9" /><sodipodi:namedview
     pagecolor="#ffffff"
     bordercolor="#666666"
     borderopacity="1"
     objecttolerance="10"
     gridtolerance="10"
     guidetolerance="10"
     inkscape:pageopacity="0"
     inkscape:pageshadow="2"
     inkscape:window-width="1920"
     inkscape:window-height="1031"
     id="namedview7"
     showgrid="false"
     inkscape:zoom="4.3703704"
     inkscape:cx="27.457627"
     inkscape:cy="27"
     inkscape:window-x="1280"
     inkscape:window-y="26"
     inkscape:window-maximized="1"
     inkscape:current-layer="Layer_1" /><g
     id="g4"
     style="fill:#808080"><path
       fill="#498CE8"
       d="M46.1,20.5l-35.5-5v3.1H8.1v-4.7c2.2-0.7,3.8-2.7,3.8-5.2c0-3-2.4-5.4-5.4-5.4S1.1,5.8,1.1,8.8   c0,2.4,1.6,4.5,3.8,5.1V49c0,0.9,0.7,1.6,1.6,1.6s1.6-0.7,1.6-1.6V37.6h2.5v3.2l35.5-5c3.9-0.4,6.8-3.7,6.8-7.6   C52.9,24.2,49.9,20.9,46.1,20.5z M29.6,21.4l4.8,0.7v12.2l-4.8,0.7V21.4z M26.4,35.3L21.6,36V20.3l4.8,0.7V35.3z M37.5,22.5   l4.8,0.7v9.9l-4.8,0.7V22.5z M4.3,8.8c0-1.2,1-2.2,2.2-2.2c1.2,0,2.2,1,2.2,2.2c0,1.2-1,2.2-2.2,2.2C5.3,11,4.3,10,4.3,8.8z    M8.1,34.4V21.7h2.5v12.7H8.1z M13.7,19.1l4.8,0.7v16.7l-4.8,0.7V19.1z M45.7,32.6l-0.2,0v-9l0.2,0c2.3,0.2,4,2.2,4,4.5   S48,32.4,45.7,32.6z"
       id="path2"
       style="fill:#808080" /></g></svg>