<?xml version="1.0" encoding="utf-8"?>
<!-- Generator: Adobe Illustrator 18.0.0, SVG Export Plug-In . SVG Version: 6.00 Build 0)  -->
<!DOCTYPE svg PUBLIC "-//W3C//DTD SVG 1.1//EN" "http://www.w3.org/Graphics/SVG/1.1/DTD/svg11.dtd">
<svg version="1.1" id="Layer_1" xmlns="http://www.w3.org/2000/svg" xmlns:xlink="http://www.w3.org/1999/xlink" x="0px" y="0px"
	 viewBox="0 0 54 54" enable-background="new 0 0 54 54" xml:space="preserve">
<g>
	<g>
		<g>
			<g>
				<g>
					<path fill="#498CE8" d="M26.9,52.8c-5.5,0-10-4.5-10-10c0-2.5,1-5,2.7-6.8V9.6c0-4,3.3-7.3,7.3-7.3c4,0,7.3,3.3,7.3,7.3v26.3
						c1.7,1.8,2.7,4.3,2.7,6.8C36.9,48.3,32.4,52.8,26.9,52.8z M26.9,5.4c-2.3,0-4.2,1.9-4.2,4.2v27.7l-0.5,0.5
						c-1.4,1.3-2.2,3.1-2.2,5c0,3.8,3.1,6.9,6.9,6.9c3.8,0,6.9-3.1,6.9-6.9c0-1.9-0.8-3.7-2.2-5l-0.5-0.5V9.6
						C31.1,7.3,29.2,5.4,26.9,5.4z"/>
				</g>
			</g>
		</g>
		<g>
			<g>
				<g>
					<circle fill="#91BBEA" cx="26.9" cy="42.9" r="3.6"/>
				</g>
			</g>
		</g>
	</g>
	<g>
		<g>
			<g>
				<g>
					<path fill="#91BBEA" d="M48.1,44.4h-6.9c-0.9,0-1.6-0.7-1.6-1.6s0.7-1.6,1.6-1.6h6.9c0.9,0,1.6,0.7,1.6,1.6S49,44.4,48.1,44.4z
						"/>
				</g>
			</g>
		</g>
		<g>
			<g>
				<g>
					<path fill="#91BBEA" d="M41.2,39.3c-0.5,0-1.1-0.3-1.4-0.8c-0.4-0.8-0.2-1.7,0.6-2.2l6-3.5c0.8-0.4,1.7-0.2,2.2,0.6
						s0.2,1.7-0.6,2.2l-6,3.5C41.8,39.3,41.5,39.3,41.2,39.3z"/>
				</g>
			</g>
		</g>
		<g>
			<g>
				<g>
					<path fill="#91BBEA" d="M47.2,52.4c-0.3,0-0.5-0.1-0.8-0.2l-6-3.5c-0.8-0.4-1-1.4-0.6-2.2c0.4-0.8,1.4-1,2.2-0.6l6,3.5
						c0.8,0.4,1,1.4,0.6,2.2C48.3,52.1,47.8,52.4,47.2,52.4z"/>
				</g>
			</g>
		</g>
	</g>
	<g>
		<g>
			<g>
				<g>
					<path fill="#91BBEA" d="M12.8,44.4H5.9c-0.9,0-1.6-0.7-1.6-1.6s0.7-1.6,1.6-1.6h6.9c0.9,0,1.6,0.7,1.6,1.6S13.6,44.4,12.8,44.4
						z"/>
				</g>
			</g>
		</g>
		<g>
			<g>
				<g>
					<path fill="#91BBEA" d="M12.8,39.3c-0.3,0-0.5-0.1-0.8-0.2l-6-3.5c-0.8-0.4-1-1.4-0.6-2.2s1.4-1,2.2-0.6l6,3.5
						c0.8,0.4,1,1.4,0.6,2.2C13.8,39.1,13.3,39.3,12.8,39.3z"/>
				</g>
			</g>
		</g>
		<g>
			<g>
				<g>
					<path fill="#91BBEA" d="M6.8,52.4c-0.5,0-1.1-0.3-1.4-0.8C5,50.9,5.2,49.9,6,49.5l6-3.5c0.8-0.4,1.7-0.2,2.2,0.6
						s0.2,1.7-0.6,2.2l-6,3.5C7.3,52.4,7.1,52.4,6.8,52.4z"/>
				</g>
			</g>
		</g>
	</g>
</g>
</svg>
